CrickxSharkCut.ufo
<glyph name="quotedbl" format="1">
  <advance width="467"/>
  <unicode hex="0022"/>
  <outline>
    <contour>
      <point x="97" y="383" type="line" smooth="no"/>
      <point x="116" y="505" type="line" smooth="no"/>
      <point x="59" y="505" type="line" smooth="no"/>
      <point x="72" y="666" type="line" smooth="no"/>
      <point x="229" y="666" type="line" smooth="no"/>
      <point x="178" y="384" type="line" smooth="no"/>
    </contour>
    <contour>
      <point x="284" y="383" type="line" smooth="no"/>
      <point x="306" y="505" type="line" smooth="no"/>
      <point x="249" y="505" type="line" smooth="no"/>
      <point x="262" y="666" type="line" smooth="no"/>
      <point x="419" y="665" type="line" smooth="no"/>
      <point x="368" y="384" type="line" smooth="no"/>
    </contour>
  </outline>
</glyph>
<glyph name="percent" format="1">
  <advance width="630"/>
  <unicode hex="0025"/>
  <outline>
    <contour>
      <point x="480" y="672" type="line" smooth="no"/>
      <point x="591" y="608" type="line" smooth="no"/>
      <point x="359" y="241" type="line" smooth="no"/>
      <point x="409" y="130" type="line" smooth="no"/>
      <point x="407" y="129"/>
      <point x="406" y="127" type="qcurve" smooth="yes"/>
      <point x="404" y="123"/>
      <point x="404" y="118" type="qcurve" smooth="yes"/>
      <point x="404" y="108"/>
      <point x="419" y="90"/>
      <point x="432" y="90" type="qcurve" smooth="yes"/>
      <point x="444" y="90"/>
      <point x="460" y="111"/>
      <point x="460" y="118" type="qcurve" smooth="yes"/>
      <point x="460" y="128"/>
      <point x="447" y="145"/>
      <point x="435" y="145" type="qcurve" smooth="yes"/>
      <point x="430" y="145"/>
      <point x="422" y="142"/>
      <point x="420" y="140" type="qcurve" smooth="yes"/>
      <point x="417" y="138"/>
      <point x="415" y="136" type="qcurve" smooth="no"/>
      <point x="368" y="245" type="line" smooth="no"/>
      <point x="373" y="251"/>
      <point x="384" y="255" type="qcurve" smooth="no"/>
      <point x="392" y="259"/>
      <point x="421" y="265"/>
      <point x="443" y="265" type="qcurve" smooth="yes"/>
      <point x="475" y="265"/>
      <point x="524" y="240"/>
      <point x="557" y="199"/>
      <point x="574" y="149"/>
      <point x="574" y="125" type="qcurve" smooth="yes"/>
      <point x="574" y="104"/>
      <point x="557" y="56"/>
      <point x="522" y="15"/>
      <point x="466" y="-12"/>
      <point x="427" y="-12" type="qcurve" smooth="yes"/>
      <point x="379" y="-12"/>
      <point x="320" y="29"/>
      <point x="289" y="82"/>
      <point x="280" y="132"/>
      <point x="282" y="140" type="qcurve" smooth="no"/>
      <point x="165" y="-25" type="line" smooth="no"/>
      <point x="49" y="47" type="line" smooth="no"/>
      <point x="303" y="414" type="line" smooth="no"/>
      <point x="259" y="517" type="line" smooth="no"/>
      <point x="264" y="518"/>
      <point x="268" y="522" type="qcurve" smooth="yes"/>
      <point x="271" y="525"/>
      <point x="277" y="536"/>
      <point x="277" y="544" type="qcurve" smooth="yes"/>
      <point x="277" y="556"/>
      <point x="262" y="571"/>
      <point x="251" y="571" type="qcurve" smooth="yes"/>
      <point x="240" y="571"/>
      <point x="223" y="557"/>
      <point x="223" y="544" type="qcurve" smooth="yes"/>
      <point x="223" y="528"/>
      <point x="244" y="515"/>
      <point x="251" y="517" type="qcurve" smooth="no"/>
      <point x="294" y="412" type="line" smooth="no"/>
      <point x="285" y="406"/>
      <point x="261" y="397"/>
      <point x="249" y="397" type="qcurve" smooth="yes"/>
      <point x="224" y="397"/>
      <point x="171" y="414"/>
      <point x="128" y="449"/>
      <point x="100" y="502"/>
      <point x="100" y="538" type="qcurve" smooth="yes"/>
      <point x="100" y="604"/>
      <point x="185" y="672"/>
      <point x="251" y="672" type="qcurve" smooth="yes"/>
      <point x="296" y="672"/>
      <point x="351" y="639"/>
      <point x="381" y="595"/>
      <point x="391" y="553"/>
      <point x="391" y="543" type="qcurve" smooth="no"/>
    </contour>
  </outline>
</glyph>
<glyph name="ampersand" format="1">
  <advance width="614"/>
  <unicode hex="0026"/>
  <outline>
    <contour>
      <point x="297" y="420" type="qcurve" smooth="no"/>
      <point x="311" y="426"/>
      <point x="354" y="451"/>
      <point x="362" y="478" type="qcurve" smooth="yes"/>
      <point x="363" y="482"/>
      <point x="363" y="495"/>
      <point x="358" y="508"/>
      <point x="345" y="518"/>
      <point x="332" y="518" type="qcurve" smooth="yes"/>
      <point x="307" y="518"/>
      <point x="278" y="500"/>
      <point x="271" y="466" type="qcurve" smooth="yes"/>
      <point x="269" y="455"/>
      <point x="285" y="416"/>
      <point x="309" y="375"/>
      <point x="334" y="339"/>
      <point x="340" y="332" type="qcurve" smooth="yes"/>
      <point x="349" y="321"/>
      <point x="371" y="305"/>
      <point x="381" y="299" type="qcurve" smooth="yes"/>
      <point x="392" y="292"/>
      <point x="404" y="287" type="qcurve" smooth="no"/>
      <point x="523" y="376" type="line" smooth="no"/>
      <point x="528" y="272" type="line" smooth="no"/>
      <point x="489" y="222" type="line" smooth="no"/>
      <point x="549" y="192" type="line" smooth="no"/>
      <point x="544" y="89" type="line" smooth="no"/>
      <point x="527" y="94"/>
      <point x="486" y="108"/>
      <point x="468" y="115" type="qcurve" smooth="yes"/>
      <point x="425" y="132" type="line" smooth="no"/>
      <point x="375" y="73"/>
      <point x="323" y="30"/>
      <point x="256" y="-1"/>
      <point x="215" y="-1" type="qcurve" smooth="yes"/>
      <point x="179" y="-1"/>
      <point x="107" y="16"/>
      <point x="53" y="57"/>
      <point x="26" y="126"/>
      <point x="35" y="177" type="qcurve" smooth="yes"/>
      <point x="46" y="237"/>
      <point x="81" y="309"/>
      <point x="99" y="329" type="qcurve" smooth="yes"/>
      <point x="119" y="352"/>
      <point x="143" y="362" type="qcurve" smooth="no"/>
      <point x="149" y="351"/>
      <point x="167" y="322"/>
      <point x="189" y="291"/>
      <point x="214" y="261"/>
      <point x="226" y="251" type="qcurve" smooth="no"/>
      <point x="212" y="235"/>
      <point x="207" y="206" type="qcurve" smooth="yes"/>
      <point x="206" y="202"/>
      <point x="209" y="189"/>
      <point x="218" y="177"/>
      <point x="233" y="169"/>
      <point x="245" y="169" type="qcurve" smooth="yes"/>
      <point x="271" y="169"/>
      <point x="295" y="189"/>
      <point x="306" y="200" type="qcurve" smooth="no"/>
      <point x="295" y="205"/>
      <point x="282" y="215" type="qcurve" smooth="yes"/>
      <point x="271" y="223"/>
      <point x="240" y="249"/>
      <point x="222" y="268" type="qcurve" smooth="no"/>
      <point x="203" y="286"/>
      <point x="166" y="339"/>
      <point x="136" y="390"/>
      <point x="118" y="433"/>
      <point x="118" y="442" type="qcurve" smooth="yes"/>
      <point x="118" y="459"/>
      <point x="135" y="522"/>
      <point x="143" y="563" type="qcurve" smooth="yes"/>
      <point x="148" y="588"/>
      <point x="188" y="626"/>
      <point x="239" y="653"/>
      <point x="294" y="667"/>
      <point x="314" y="667" type="qcurve" smooth="yes"/>
      <point x="347" y="667"/>
      <point x="404" y="649"/>
      <point x="445" y="622"/>
      <point x="468" y="590"/>
      <point x="468" y="575" type="qcurve" smooth="yes"/>
      <point x="468" y="559"/>
      <point x="465" y="513"/>
      <point x="457" y="472" type="qcurve" smooth="yes"/>
      <point x="452" y="445"/>
      <point x="416" y="396"/>
      <point x="396" y="377" type="qcurve" smooth="yes"/>
      <point x="373" y="355"/>
      <point x="345" y="337" type="qcurve" smooth="no"/>
      <point x="334" y="350"/>
      <point x="304" y="400"/>
    </contour>
  </outline>
</glyph>
<glyph name="parenleft" format="1">
  <advance width="316"/>
  <unicode hex="0028"/>
  <outline>
    <contour>
      <point x="328" y="595" type="line" smooth="no"/>
      <point x="289" y="586"/>
      <point x="228" y="514"/>
      <point x="186" y="421"/>
      <point x="163" y="325"/>
      <point x="163" y="292" type="qcurve" smooth="yes"/>
      <point x="163" y="265"/>
      <point x="170" y="205"/>
      <point x="187" y="148"/>
      <point x="216" y="97"/>
      <point x="238" y="81" type="qcurve" smooth="no"/>
      <point x="216" y="-60" type="line" smooth="no"/>
      <point x="164" y="-38"/>
      <point x="91" y="38"/>
      <point x="44" y="133"/>
      <point x="24" y="239"/>
      <point x="24" y="292" type="qcurve" smooth="yes"/>
      <point x="24" y="338"/>
      <point x="44" y="437"/>
      <point x="83" y="534"/>
      <point x="139" y="622"/>
      <point x="211" y="692"/>
      <point x="299" y="739"/>
      <point x="351" y="746" type="qcurve" smooth="no"/>
    </contour>
  </outline>
</glyph>
<glyph name="asterisk" format="1">
  <advance width="544"/>
  <unicode hex="002a"/>
  <outline>
    <contour>
      <point x="185" y="256" type="line" smooth="no"/>
      <point x="135" y="335" type="line" smooth="no"/>
      <point x="235" y="395" type="line" smooth="no"/>
      <point x="292" y="305" type="line" smooth="no"/>
      <point x="362" y="397" type="line" smooth="no"/>
      <point x="453" y="329" type="line" smooth="no"/>
      <point x="397" y="261" type="line" smooth="no"/>
      <point x="487" y="262" type="line" smooth="no"/>
      <point x="470" y="154" type="line" smooth="no"/>
      <point x="390" y="154" type="line" smooth="no"/>
      <point x="428" y="88" type="line" smooth="no"/>
      <point x="332" y="17" type="line" smooth="no"/>
      <point x="279" y="109" type="line" smooth="no"/>
      <point x="214" y="18" type="line" smooth="no"/>
      <point x="120" y="86" type="line" smooth="no"/>
      <point x="172" y="148" type="line" smooth="no"/>
      <point x="132" y="147"/>
      <point x="80" y="149"/>
      <point x="79" y="148" type="qcurve" smooth="yes"/>
      <point x="78" y="147"/>
      <point x="84" y="182"/>
      <point x="88" y="202" type="qcurve" smooth="yes"/>
      <point x="97" y="256" type="line" smooth="no"/>
    </contour>
  </outline>
</glyph>
<glyph name="comma" format="1">
  <advance width="292"/>
  <unicode hex="002c"/>
  <outline>
    <contour>
      <point x="112" y="-118" type="line" smooth="no"/>
      <point x="136" y="0" type="line" smooth="no"/>
      <point x="48" y="0" type="line" smooth="no"/>
      <point x="76" y="158" type="line" smooth="no"/>
      <point x="225" y="158" type="line" smooth="no"/>
      <point x="226" y="126"/>
      <point x="225" y="95" type="qcurve" smooth="yes"/>
      <point x="224" y="69"/>
      <point x="220" y="12"/>
      <point x="216" y="-8" type="qcurve" smooth="yes"/>
      <point x="213" y="-25"/>
      <point x="205" y="-49"/>
      <point x="196" y="-72"/>
      <point x="184" y="-98"/>
      <point x="177" y="-117" type="qcurve" smooth="no"/>
    </contour>
  </outline>
</glyph>
<glyph name="hyphen" format="1">
  <advance width="348"/>
  <unicode hex="002d"/>
  <unicode hex="00ad"/>
  <outline>
    <contour>
      <point x="60" y="241" type="line" smooth="no"/>
      <point x="305" y="241" type="line" smooth="no"/>
      <point x="284" y="108" type="line" smooth="no"/>
      <point x="39" y="108" type="line" smooth="no"/>
    </contour>
  </outline>
</glyph>
<glyph name="period" format="1">
  <advance width="273"/>
  <unicode hex="002e"/>
  <outline>
    <contour>
      <point x="232" y="147" type="line" smooth="no"/>
      <point x="208" y="0" type="line" smooth="no"/>
      <point x="50" y="0" type="line" smooth="no"/>
      <point x="73" y="147" type="line" smooth="no"/>
    </contour>
  </outline>
</glyph>
<glyph name="slash" format="1">
  <advance width="514"/>
  <unicode hex="002f"/>
  <outline>
    <contour>
      <point x="453" y="626" type="line" smooth="no"/>
      <point x="196" y="-23" type="line" smooth="no"/>
      <point x="50" y="27" type="line" smooth="no"/>
      <point x="311" y="675" type="line" smooth="no"/>
    </contour>
  </outline>
</glyph>
<glyph name="zero" format="1">
  <advance width="497"/>
  <unicode hex="0030"/>
  <outline>
    <contour>
      <point x="407" y="159" type="qcurve" smooth="yes"/>
      <point x="404" y="144"/>
      <point x="396" y="116"/>
      <point x="390" y="105" type="qcurve" smooth="yes"/>
      <point x="378" y="82"/>
      <point x="324" y="44"/>
      <point x="263" y="16"/>
      <point x="205" y="0"/>
      <point x="187" y="0" type="qcurve" smooth="yes"/>
      <point x="163" y="0"/>
      <point x="105" y="18"/>
      <point x="55" y="51"/>
      <point x="23" y="99"/>
      <point x="24" y="129" type="qcurve" smooth="no"/>
      <point x="74" y="480" type="line" smooth="no"/>
      <point x="94" y="540"/>
      <point x="160" y="613"/>
      <point x="235" y="653"/>
      <point x="308" y="666"/>
      <point x="334" y="666" type="qcurve" smooth="no"/>
      <point x="305" y="482" type="line" smooth="no"/>
      <point x="300" y="484"/>
      <point x="290" y="485"/>
      <point x="285" y="486" type="qcurve" smooth="yes"/>
      <point x="273" y="488" type="line" smooth="no"/>
      <point x="256" y="488"/>
      <point x="225" y="457"/>
      <point x="222" y="438" type="qcurve" smooth="yes"/>
      <point x="215" y="397"/>
      <point x="188" y="219"/>
      <point x="188" y="217" type="qcurve" smooth="yes"/>
      <point x="187" y="207"/>
      <point x="203" y="181"/>
      <point x="222" y="180" type="qcurve" smooth="no"/>
      <point x="232" y="181"/>
      <point x="241" y="184" type="qcurve" smooth="yes"/>
      <point x="249" y="186"/>
      <point x="261" y="194"/>
      <point x="263" y="201" type="qcurve" smooth="yes"/>
      <point x="342" y="665" type="line" smooth="no"/>
      <point x="366" y="665"/>
      <point x="414" y="646"/>
      <point x="451" y="611"/>
      <point x="473" y="563"/>
      <point x="470" y="534" type="qcurve" smooth="yes"/>
      <point x="469" y="529"/>
      <point x="463" y="485"/>
      <point x="413" y="187"/>
    </contour>
  </outline>
</glyph>
<glyph name="one" format="1">
  <advance width="420"/>
  <unicode hex="0031"/>
  <outline>
    <contour>
      <point x="80" y="1" type="line" smooth="no"/>
      <point x="168" y="442" type="line" smooth="no"/>
      <point x="18" y="392" type="line" smooth="no"/>
      <point x="54" y="534" type="line" smooth="no"/>
      <point x="227" y="666" type="line" smooth="no"/>
      <point x="382" y="666" type="line" smooth="no"/>
      <point x="264" y="0" type="line" smooth="no"/>
    </contour>
  </outline>
</glyph>
<glyph name="two" format="1">
  <advance width="507"/>
  <unicode hex="0032"/>
  <outline>
    <contour>
      <point x="420" y="341" type="qcurve" smooth="yes"/>
      <point x="349" y="271"/>
      <point x="325" y="243" type="qcurve" smooth="yes"/>
      <point x="301" y="214"/>
      <point x="267" y="160"/>
      <point x="266" y="138" type="qcurve" smooth="no"/>
      <point x="422" y="139" type="line" smooth="no"/>
      <point x="396" y="0" type="line" smooth="no"/>
      <point x="15" y="0" type="line" smooth="no"/>
      <point x="37" y="100"/>
      <point x="141" y="264"/>
      <point x="213" y="331" type="qcurve" smooth="yes"/>
      <point x="227" y="345"/>
      <point x="273" y="377"/>
      <point x="316" y="413"/>
      <point x="348" y="452"/>
      <point x="348" y="474" type="qcurve" smooth="yes"/>
      <point x="348" y="484"/>
      <point x="337" y="500"/>
      <point x="321" y="510"/>
      <point x="305" y="516"/>
      <point x="300" y="516" type="qcurve" smooth="yes"/>
      <point x="290" y="516"/>
      <point x="271" y="511"/>
      <point x="254" y="494" type="qcurve" smooth="yes"/>
      <point x="254" y="493"/>
      <point x="232" y="464"/>
      <point x="220" y="432" type="qcurve" smooth="no"/>
      <point x="104" y="505" type="line" smooth="no"/>
      <point x="112" y="532"/>
      <point x="142" y="589"/>
      <point x="193" y="636"/>
      <point x="269" y="666"/>
      <point x="324" y="666" type="qcurve" smooth="yes"/>
      <point x="355" y="666"/>
      <point x="417" y="647"/>
      <point x="467" y="606"/>
      <point x="498" y="540"/>
      <point x="498" y="494" type="qcurve" smooth="yes"/>
      <point x="498" y="449"/>
      <point x="452" y="374"/>
    </contour>
  </outline>
</glyph>
<glyph name="four" format="1">
  <advance width="543"/>
  <unicode hex="0034"/>
  <outline>
    <contour>
      <point x="491" y="230" type="line" smooth="no"/>
      <point x="475" y="130" type="line" smooth="no"/>
      <point x="416" y="130" type="line" smooth="no"/>
      <point x="392" y="1" type="line" smooth="no"/>
      <point x="214" y="0" type="line" smooth="no"/>
      <point x="282" y="405" type="line" smooth="no"/>
      <point x="168" y="257" type="line" smooth="no"/>
      <point x="250" y="257" type="line" smooth="no"/>
      <point x="229" y="133" type="line" smooth="no"/>
      <point x="4" y="133" type="line" smooth="no"/>
      <point x="31" y="276" type="line" smooth="no"/>
      <point x="322" y="666" type="line" smooth="no"/>
      <point x="507" y="666" type="line" smooth="no"/>
      <point x="435" y="230" type="line" smooth="no"/>
    </contour>
  </outline>
</glyph>
<glyph name="five" format="1">
  <advance width="504"/>
  <unicode hex="0035"/>
  <outline>
    <contour>
      <point x="256" y="519" type="line" smooth="no"/>
      <point x="245" y="443" type="line" smooth="no"/>
      <point x="259" y="450"/>
      <point x="303" y="457"/>
      <point x="316" y="455" type="qcurve" smooth="yes"/>
      <point x="317" y="455"/>
      <point x="336" y="453"/>
      <point x="364" y="445"/>
      <point x="396" y="431"/>
      <point x="421" y="408"/>
      <point x="435" y="373"/>
      <point x="431" y="349" type="qcurve" smooth="yes"/>
      <point x="401" y="156" type="line" smooth="yes"/>
      <point x="395" y="114"/>
      <point x="352" y="54"/>
      <point x="289" y="17"/>
      <point x="211" y="-1"/>
      <point x="169" y="-1" type="qcurve" smooth="yes"/>
      <point x="167" y="-1"/>
      <point x="123" y="7"/>
      <point x="71" y="29"/>
      <point x="28" y="67"/>
      <point x="28" y="97" type="qcurve" smooth="yes"/>
      <point x="28" y="123"/>
      <point x="31" y="158"/>
      <point x="35" y="183"/>
      <point x="41" y="212" type="line" smooth="no"/>
      <point x="178" y="212" type="line" smooth="no"/>
      <point x="177" y="205"/>
      <point x="176" y="194"/>
      <point x="176" y="190" type="qcurve" smooth="yes"/>
      <point x="176" y="182" type="line" smooth="no"/>
      <point x="174" y="166"/>
      <point x="196" y="152"/>
      <point x="212" y="152" type="qcurve" smooth="no"/>
      <point x="222" y="153"/>
      <point x="232" y="157" type="qcurve" smooth="yes"/>
      <point x="240" y="161"/>
      <point x="255" y="175"/>
      <point x="258" y="189" type="qcurve" smooth="yes"/>
      <point x="274" y="282" type="line" smooth="yes"/>
      <point x="275" y="286"/>
      <point x="275" y="301"/>
      <point x="268" y="316"/>
      <point x="252" y="327"/>
      <point x="237" y="327" type="qcurve" smooth="no"/>
      <point x="227" y="326"/>
      <point x="218" y="322" type="qcurve" smooth="yes"/>
      <point x="210" y="318"/>
      <point x="193" y="303"/>
      <point x="186" y="289" type="qcurve" smooth="no"/>
      <point x="54" y="289" type="line" smooth="no"/>
      <point x="112" y="666" type="line" smooth="no"/>
      <point x="471" y="666" type="line" smooth="no"/>
      <point x="447" y="520" type="line" smooth="no"/>
    </contour>
  </outline>
</glyph>
<glyph name="seven" format="1">
  <advance width="508"/>
  <unicode hex="0037"/>
  <outline>
    <contour>
      <point x="179" y="0" type="line" smooth="no"/>
      <point x="-6" y="0" type="line" smooth="no"/>
      <point x="265" y="511" type="line" smooth="no"/>
      <point x="103" y="511" type="line" smooth="no"/>
      <point x="126" y="666" type="line" smooth="no"/>
      <point x="496" y="666" type="line" smooth="no"/>
      <point x="474" y="515" type="line" smooth="no"/>
    </contour>
  </outline>
</glyph>
<glyph name="eight" format="1">
  <advance width="503"/>
  <unicode hex="0038"/>
  <outline>
    <contour>
      <point x="376" y="325" type="qcurve" smooth="yes"/>
      <point x="372" y="323"/>
      <point x="342" y="313"/>
      <point x="302" y="298"/>
      <point x="257" y="283"/>
      <point x="193" y="260"/>
      <point x="192" y="259" type="qcurve" smooth="yes"/>
      <point x="177" y="252"/>
      <point x="166" y="228"/>
      <point x="166" y="213" type="qcurve" smooth="yes"/>
      <point x="166" y="192"/>
      <point x="187" y="165"/>
      <point x="210" y="165" type="qcurve" smooth="yes"/>
      <point x="229" y="165"/>
      <point x="253" y="177"/>
      <point x="267" y="195"/>
      <point x="272" y="215"/>
      <point x="272" y="223" type="qcurve" smooth="yes"/>
      <point x="272" y="225"/>
      <point x="264" y="256"/>
      <point x="254" y="273" type="qcurve" smooth="no"/>
      <point x="384" y="320" type="line" smooth="no"/>
      <point x="406" y="299"/>
      <point x="421" y="241"/>
      <point x="421" y="214" type="qcurve" smooth="yes"/>
      <point x="421" y="160"/>
      <point x="382" y="78"/>
      <point x="313" y="23"/>
      <point x="219" y="-5"/>
      <point x="166" y="-5" type="qcurve" smooth="yes"/>
      <point x="165" y="-5"/>
      <point x="142" y="-4"/>
      <point x="109" y="2"/>
      <point x="70" y="16"/>
      <point x="37" y="39"/>
      <point x="14" y="75"/>
      <point x="14" y="101" type="qcurve" smooth="no"/>
      <point x="20" y="152"/>
      <point x="29" y="218"/>
      <point x="32" y="237" type="qcurve" smooth="yes"/>
      <point x="38" y="270" type="line" smooth="yes"/>
      <point x="42" y="293"/>
      <point x="95" y="341" type="line" smooth="no"/>
      <point x="107" y="346"/>
      <point x="200" y="382" type="line" smooth="no"/>
      <point x="286" y="419"/>
      <point x="291" y="424" type="qcurve" smooth="yes"/>
      <point x="296" y="428"/>
      <point x="302" y="445"/>
      <point x="306" y="463"/>
      <point x="308" y="479"/>
      <point x="308" y="482" type="qcurve" smooth="yes"/>
      <point x="308" y="503"/>
      <point x="290" y="525"/>
      <point x="267" y="525" type="qcurve" smooth="yes"/>
      <point x="251" y="525"/>
      <point x="229" y="510"/>
      <point x="216" y="488"/>
      <point x="210" y="464"/>
      <point x="210" y="454" type="qcurve" smooth="yes"/>
      <point x="210" y="440"/>
      <point x="221" y="408"/>
      <point x="226" y="400" type="qcurve" smooth="no"/>
      <point x="92" y="348" type="line" smooth="no"/>
      <point x="74" y="365"/>
      <point x="61" y="423"/>
      <point x="61" y="454" type="qcurve" smooth="yes"/>
      <point x="62" y="503"/>
      <point x="93" y="581"/>
      <point x="151" y="637"/>
      <point x="233" y="667"/>
      <point x="284" y="667" type="qcurve" smooth="yes"/>
      <point x="365" y="667"/>
      <point x="453" y="588"/>
      <point x="453" y="515" type="qcurve" smooth="yes"/>
      <point x="453" y="490"/>
      <point x="447" y="431"/>
      <point x="430" y="377"/>
      <point x="400" y="334"/>
    </contour>
  </outline>
</glyph>
<glyph name="question" format="1">
  <advance width="505"/>
  <unicode hex="003f"/>
  <outline>
    <contour>
      <point x="51" y="501" type="line" smooth="no"/>
      <point x="55" y="520"/>
      <point x="87" y="576"/>
      <point x="142" y="629"/>
      <point x="218" y="666"/>
      <point x="266" y="666" type="qcurve" smooth="yes"/>
      <point x="334" y="666"/>
      <point x="410" y="620"/>
      <point x="447" y="559"/>
      <point x="455" y="500"/>
      <point x="455" y="487" type="qcurve" smooth="yes"/>
      <point x="455" y="437"/>
      <point x="410" y="361"/>
      <point x="370" y="321" type="qcurve" smooth="yes"/>
      <point x="339" y="291"/>
      <point x="286" y="219"/>
      <point x="273" y="161" type="qcurve" smooth="no"/>
      <point x="110" y="161" type="line" smooth="no"/>
      <point x="119" y="209"/>
      <point x="148" y="288"/>
      <point x="172" y="314" type="qcurve" smooth="yes"/>
      <point x="229" y="372"/>
      <point x="267" y="414"/>
      <point x="293" y="451"/>
      <point x="293" y="462" type="qcurve" smooth="yes"/>
      <point x="293" y="484"/>
      <point x="265" y="503"/>
      <point x="253" y="503" type="qcurve" smooth="yes"/>
      <point x="238" y="503"/>
      <point x="211" y="485"/>
      <point x="190" y="460"/>
      <point x="176" y="433"/>
      <point x="173" y="424" type="qcurve" smooth="no"/>
    </contour>
    <contour>
      <point x="269" y="136" type="line" smooth="no"/>
      <point x="244" y="0" type="line" smooth="no"/>
      <point x="85" y="0" type="line" smooth="no"/>
      <point x="106" y="136" type="line" smooth="no"/>
    </contour>
  </outline>
</glyph>
<glyph name="at" format="1">
  <advance width="830"/>
  <unicode hex="0040"/>
  <outline>
    <contour>
      <point x="486" y="678" type="qcurve" smooth="yes"/>
      <point x="516" y="678"/>
      <point x="592" y="667"/>
      <point x="668" y="638"/>
      <point x="737" y="588"/>
      <point x="785" y="511"/>
      <point x="805" y="402"/>
      <point x="793" y="329" type="qcurve" smooth="yes"/>
      <point x="788" y="300"/>
      <point x="770" y="228"/>
      <point x="733" y="165"/>
      <point x="673" y="122"/>
      <point x="626" y="122" type="qcurve" smooth="yes"/>
      <point x="584" y="122"/>
      <point x="526" y="146"/>
      <point x="509" y="168" type="qcurve" smooth="yes"/>
      <point x="504" y="176"/>
      <point x="493" y="203"/>
      <point x="488" y="217" type="qcurve" smooth="yes"/>
      <point x="482" y="233"/>
      <point x="476" y="251" type="qcurve" smooth="yes"/>
      <point x="476" y="254"/>
      <point x="482" y="295"/>
      <point x="486" y="318" type="qcurve" smooth="yes"/>
      <point x="490" y="345"/>
      <point x="497" y="378" type="qcurve" smooth="no"/>
      <point x="451" y="378" type="line" smooth="yes"/>
      <point x="430" y="378"/>
      <point x="404" y="330"/>
      <point x="394" y="265" type="qcurve" smooth="yes"/>
      <point x="392" y="256"/>
      <point x="400" y="244"/>
      <point x="411" y="237"/>
      <point x="424" y="234"/>
      <point x="428" y="234" type="qcurve" smooth="yes"/>
      <point x="432" y="234"/>
      <point x="453" y="240" type="line" smooth="yes"/>
      <point x="469" y="246" type="line" smooth="no"/>
      <point x="502" y="165" type="line" smooth="no"/>
      <point x="497" y="162"/>
      <point x="473" y="152"/>
      <point x="438" y="142"/>
      <point x="395" y="135"/>
      <point x="371" y="135" type="qcurve" smooth="yes"/>
      <point x="348" y="135"/>
      <point x="300" y="153"/>
      <point x="262" y="189"/>
      <point x="243" y="243"/>
      <point x="250" y="278" type="qcurve" smooth="yes"/>
      <point x="263" y="345"/>
      <point x="312" y="422"/>
      <point x="370" y="460"/>
      <point x="432" y="469"/>
      <point x="459" y="469" type="qcurve" smooth="yes"/>
      <point x="629" y="469" type="line" smooth="no"/>
      <point x="620" y="416"/>
      <point x="614" y="373" type="qcurve" smooth="yes"/>
      <point x="611" y="355"/>
      <point x="606" y="319"/>
      <point x="601" y="290"/>
      <point x="599" y="272"/>
      <point x="599" y="271" type="qcurve" smooth="yes"/>
      <point x="599" y="265"/>
      <point x="607" y="246"/>
      <point x="622" y="246" type="qcurve" smooth="yes"/>
      <point x="629" y="246"/>
      <point x="643" y="273"/>
      <point x="655" y="316"/>
      <point x="664" y="369"/>
      <point x="668" y="395" type="qcurve" smooth="yes"/>
      <point x="672" y="428"/>
      <point x="658" y="482"/>
      <point x="615" y="522"/>
      <point x="542" y="544"/>
      <point x="488" y="544" type="qcurve" smooth="yes"/>
      <point x="453" y="544"/>
      <point x="367" y="532"/>
      <point x="285" y="482"/>
      <point x="218" y="381"/>
      <point x="202" y="293" type="qcurve" smooth="yes"/>
      <point x="191" y="230"/>
      <point x="226" y="147"/>
      <point x="284" y="98"/>
      <point x="350" y="78"/>
      <point x="369" y="78" type="qcurve" smooth="yes"/>
      <point x="385" y="78"/>
      <point x="426" y="87"/>
      <point x="446" y="92" type="qcurve" smooth="yes"/>
      <point x="468" y="98"/>
      <point x="492" y="107" type="qcurve" smooth="no"/>
      <point x="557" y="31" type="line" smooth="no"/>
      <point x="532" y="11"/>
      <point x="501" y="-4" type="qcurve" smooth="yes"/>
      <point x="474" y="-17"/>
      <point x="401" y="-38"/>
      <point x="356" y="-38" type="qcurve" smooth="yes"/>
      <point x="281" y="-38"/>
      <point x="159" y="22"/>
      <point x="79" y="123"/>
      <point x="46" y="253"/>
      <point x="60" y="323" type="qcurve" smooth="yes"/>
      <point x="94" y="498"/>
      <point x="301" y="678"/>
    </contour>
  </outline>
</glyph>
<glyph name="A" format="1">
  <advance width="629"/>
  <unicode hex="0041"/>
  <outline>
    <contour>
      <point x="360" y="408" type="line" smooth="no"/>
      <point x="290" y="240" type="line" smooth="no"/>
      <point x="365" y="240" type="line" smooth="no"/>
      <point x="373" y="117" type="line" smooth="no"/>
      <point x="219" y="117" type="line" smooth="no"/>
      <point x="159" y="0" type="line" smooth="no"/>
      <point x="-35" y="0" type="line" smooth="no"/>
      <point x="316" y="666" type="line" smooth="no"/>
      <point x="509" y="666" type="line" smooth="no"/>
      <point x="559" y="0" type="line" smooth="no"/>
      <point x="391" y="1" type="line" smooth="no"/>
    </contour>
  </outline>
</glyph>
<glyph name="B" format="1">
  <advance width="588"/>
  <unicode hex="0042"/>
  <outline>
    <contour>
      <point x="447" y="336" type="qcurve" smooth="no"/>
      <point x="484" y="311"/>
      <point x="523" y="250"/>
      <point x="533" y="222" type="qcurve" smooth="yes"/>
      <point x="544" y="189"/>
      <point x="546" y="156" type="qcurve" smooth="no"/>
      <point x="546" y="117"/>
      <point x="508" y="61"/>
      <point x="458" y="23"/>
      <point x="409" y="2"/>
      <point x="397" y="-1" type="qcurve" smooth="no"/>
      <point x="29" y="-1" type="line" smooth="no"/>
      <point x="147" y="665" type="line" smooth="no"/>
      <point x="316" y="665" type="line" smooth="no"/>
      <point x="231" y="161" type="line" smooth="no"/>
      <point x="251" y="159"/>
      <point x="290" y="158"/>
      <point x="309" y="163" type="qcurve" smooth="yes"/>
      <point x="326" y="168"/>
      <point x="351" y="195"/>
      <point x="351" y="219" type="qcurve" smooth="yes"/>
      <point x="351" y="220"/>
      <point x="345" y="237"/>
      <point x="326" y="255"/>
      <point x="291" y="268"/>
      <point x="261" y="264" type="qcurve" smooth="no"/>
      <point x="282" y="400" type="line" smooth="no"/>
      <point x="312" y="408"/>
      <point x="347" y="433"/>
      <point x="366" y="456"/>
      <point x="372" y="473"/>
      <point x="372" y="474" type="qcurve" smooth="yes"/>
      <point x="372" y="487"/>
      <point x="361" y="504"/>
      <point x="346" y="514"/>
      <point x="331" y="517"/>
      <point x="327" y="517" type="qcurve" smooth="yes"/>
      <point x="303" y="517" type="line" smooth="no"/>
      <point x="328" y="665" type="line" smooth="no"/>
      <point x="445" y="665" type="line" smooth="no"/>
      <point x="467" y="660"/>
      <point x="508" y="633"/>
      <point x="540" y="592"/>
      <point x="559" y="536"/>
      <point x="559" y="503" type="qcurve" smooth="no"/>
      <point x="557" y="476"/>
      <point x="545" y="448" type="qcurve" smooth="yes"/>
      <point x="534" y="424"/>
      <point x="489" y="365"/>
    </contour>
  </outline>
</glyph>
<glyph name="D" format="1">
  <advance width="535"/>
  <unicode hex="0044"/>
  <outline>
    <contour>
      <point x="371" y="58" type="qcurve" smooth="no"/>
      <point x="338" y="31"/>
      <point x="249" y="6"/>
      <point x="153" y="-2"/>
      <point x="58" y="0"/>
      <point x="20" y="0" type="qcurve" smooth="no"/>
      <point x="129" y="666" type="line" smooth="no"/>
      <point x="277" y="665" type="line" smooth="no"/>
      <point x="205" y="163" type="line" smooth="no"/>
      <point x="218" y="166"/>
      <point x="247" y="176"/>
      <point x="273" y="194"/>
      <point x="294" y="225"/>
      <point x="299" y="249" type="qcurve" smooth="yes"/>
      <point x="305" y="276"/>
      <point x="317" y="343"/>
      <point x="327" y="408"/>
      <point x="332" y="463"/>
      <point x="332" y="477" type="qcurve" smooth="yes"/>
      <point x="332" y="489"/>
      <point x="319" y="506"/>
      <point x="299" y="516"/>
      <point x="276" y="521"/>
      <point x="266" y="521" type="qcurve" smooth="no"/>
      <point x="288" y="666" type="line" smooth="no"/>
      <point x="379" y="666" type="line" smooth="no"/>
      <point x="424" y="658"/>
      <point x="472" y="604"/>
      <point x="495" y="531"/>
      <point x="498" y="449"/>
      <point x="498" y="413" type="qcurve" smooth="yes"/>
      <point x="496" y="291"/>
      <point x="423" y="117"/>
    </contour>
  </outline>
</glyph>
<glyph name="E" format="1">
  <advance width="452"/>
  <unicode hex="0045"/>
  <outline>
    <contour>
      <point x="267" y="522" type="line" smooth="no"/>
      <point x="248" y="395" type="line" smooth="no"/>
      <point x="386" y="395" type="line" smooth="no"/>
      <point x="365" y="267" type="line" smooth="no"/>
      <point x="223" y="267" type="line" smooth="no"/>
      <point x="202" y="146" type="line" smooth="no"/>
      <point x="346" y="147" type="line" smooth="no"/>
      <point x="318" y="0" type="line" smooth="no"/>
      <point x="28" y="0" type="line" smooth="no"/>
      <point x="136" y="666" type="line" smooth="no"/>
      <point x="424" y="665" type="line" smooth="no"/>
      <point x="406" y="522" type="line" smooth="no"/>
    </contour>
  </outline>
</glyph>
<glyph name="F" format="1">
  <advance width="492"/>
  <unicode hex="0046"/>
  <outline>
    <contour>
      <point x="284" y="515" type="line" smooth="no"/>
      <point x="268" y="406" type="line" smooth="no"/>
      <point x="417" y="406" type="line" smooth="no"/>
      <point x="396" y="266" type="line" smooth="no"/>
      <point x="244" y="266" type="line" smooth="no"/>
      <point x="197" y="0" type="line" smooth="no"/>
      <point x="38" y="-1" type="line" smooth="no"/>
      <point x="89" y="317" type="line" smooth="yes"/>
      <point x="143" y="657"/>
      <point x="144" y="665" type="qcurve" smooth="no"/>
      <point x="453" y="665" type="line" smooth="no"/>
      <point x="434" y="514" type="line" smooth="no"/>
    </contour>
  </outline>
</glyph>
<glyph name="H" format="1">
  <advance width="562"/>
  <unicode hex="0048"/>
  <outline>
    <contour>
      <point x="277" y="0" type="line" smooth="no"/>
      <point x="316" y="234" type="line" smooth="no"/>
      <point x="215" y="234" type="line" smooth="no"/>
      <point x="175" y="0" type="line" smooth="no"/>
      <point x="31" y="-1" type="line" smooth="no"/>
      <point x="139" y="666" type="line" smooth="no"/>
      <point x="288" y="665" type="line" smooth="no"/>
      <point x="246" y="389" type="line" smooth="no"/>
      <point x="334" y="389" type="line" smooth="no"/>
      <point x="379" y="666" type="line" smooth="no"/>
      <point x="533" y="665" type="line" smooth="no"/>
      <point x="427" y="0" type="line" smooth="no"/>
    </contour>
  </outline>
</glyph>
<glyph name="J" format="1">
  <advance width="521"/>
  <unicode hex="004a"/>
  <outline>
    <contour>
      <point x="408" y="168" type="line" smooth="no"/>
      <point x="404" y="141"/>
      <point x="378" y="80"/>
      <point x="329" y="29"/>
      <point x="255" y="-5"/>
      <point x="203" y="-5" type="qcurve" smooth="yes"/>
      <point x="172" y="-5"/>
      <point x="106" y="4"/>
      <point x="51" y="29"/>
      <point x="12" y="74"/>
      <point x="8" y="111" type="qcurve" smooth="yes"/>
      <point x="3" y="153"/>
      <point x="21" y="241"/>
      <point x="32" y="280" type="qcurve" smooth="no"/>
      <point x="165" y="310" type="line" smooth="no"/>
      <point x="157" y="278"/>
      <point x="149" y="237"/>
      <point x="147" y="225" type="qcurve" smooth="yes"/>
      <point x="144" y="211"/>
      <point x="145" y="204" type="qcurve" smooth="no"/>
      <point x="145" y="181"/>
      <point x="180" y="157"/>
      <point x="196" y="157" type="qcurve" smooth="yes"/>
      <point x="211" y="157"/>
      <point x="239" y="175"/>
      <point x="241" y="186" type="qcurve" smooth="yes"/>
      <point x="306" y="534" type="line" smooth="no"/>
      <point x="198" y="533" type="line" smooth="no"/>
      <point x="214" y="666" type="line" smooth="no"/>
      <point x="490" y="666" type="line" smooth="no"/>
      <point x="408" y="168" type="line" smooth="no"/>
    </contour>
  </outline>
</glyph>
<glyph name="K" format="1">
  <advance width="572"/>
  <unicode hex="004b"/>
  <outline>
    <contour>
      <point x="486" y="0" type="line" smooth="no"/>
      <point x="319" y="0" type="line" smooth="no"/>
      <point x="221" y="185" type="line" smooth="no"/>
      <point x="185" y="0" type="line" smooth="no"/>
      <point x="25" y="0" type="line" smooth="no"/>
      <point x="144" y="666" type="line" smooth="no"/>
      <point x="305" y="665" type="line" smooth="no"/>
      <point x="264" y="416" type="line" smooth="no"/>
      <point x="474" y="633" type="line" smooth="no"/>
      <point x="552" y="518" type="line" smooth="no"/>
      <point x="343" y="285" type="line" smooth="no"/>
    </contour>
  </outline>
</glyph>
<glyph name="M" format="1">
  <advance width="657"/>
  <unicode hex="004d"/>
  <outline>
    <contour>
      <point x="339" y="0" type="line" smooth="no"/>
      <point x="387" y="312" type="line" smooth="no"/>
      <point x="292" y="221" type="line" smooth="no"/>
      <point x="244" y="293" type="line" smooth="no"/>
      <point x="198" y="0" type="line" smooth="no"/>
      <point x="30" y="0" type="line" smooth="no"/>
      <point x="141" y="666" type="line" smooth="no"/>
      <point x="285" y="666" type="line" smooth="no"/>
      <point x="355" y="485" type="line" smooth="no"/>
      <point x="453" y="666" type="line" smooth="no"/>
      <point x="617" y="666" type="line" smooth="no"/>
      <point x="508" y="0" type="line" smooth="no"/>
    </contour>
  </outline>
</glyph>
<glyph name="T" format="1">
  <advance width="478"/>
  <unicode hex="0054"/>
  <outline>
    <contour>
      <point x="346" y="509" type="line" smooth="no"/>
      <point x="267" y="0" type="line" smooth="no"/>
      <point x="92" y="0" type="line" smooth="no"/>
      <point x="172" y="508" type="line" smooth="no"/>
      <point x="48" y="508" type="line" smooth="no"/>
      <point x="70" y="666" type="line" smooth="no"/>
      <point x="474" y="667" type="line" smooth="no"/>
      <point x="454" y="509" type="line" smooth="no"/>
    </contour>
  </outline>
</glyph>
<glyph name="U" format="1">
  <advance width="542"/>
  <unicode hex="0055"/>
  <outline>
    <contour>
      <point x="433" y="139" type="line" smooth="no"/>
      <point x="429" y="115"/>
      <point x="398" y="66"/>
      <point x="345" y="25"/>
      <point x="274" y="-1"/>
      <point x="229" y="-1" type="qcurve" smooth="yes"/>
      <point x="159" y="-1"/>
      <point x="83" y="44"/>
      <point x="47" y="102"/>
      <point x="41" y="156"/>
      <point x="41" y="165" type="qcurve" smooth="no"/>
      <point x="120" y="666" type="line" smooth="no"/>
      <point x="275" y="666" type="line" smooth="no"/>
      <point x="216" y="281" type="line" smooth="yes"/>
      <point x="206" y="218"/>
      <point x="226" y="166"/>
      <point x="255" y="166" type="qcurve" smooth="yes"/>
      <point x="267" y="166"/>
      <point x="283" y="180"/>
      <point x="294" y="202"/>
      <point x="301" y="227"/>
      <point x="303" y="238" type="qcurve" smooth="yes"/>
      <point x="373" y="666" type="line" smooth="no"/>
      <point x="520" y="666" type="line" smooth="no"/>
      <point x="433" y="139" type="line" smooth="no"/>
    </contour>
  </outline>
</glyph>
<glyph name="W" format="1">
  <advance width="752"/>
  <unicode hex="0057"/>
  <outline>
    <contour>
      <point x="343" y="0" type="line" smooth="no"/>
      <point x="336" y="172" type="line" smooth="no"/>
      <point x="235" y="0" type="line" smooth="no"/>
      <point x="109" y="0" type="line" smooth="no"/>
      <point x="69" y="666" type="line" smooth="no"/>
      <point x="239" y="666" type="line" smooth="no"/>
      <point x="251" y="428" type="line" smooth="no"/>
      <point x="379" y="666" type="line" smooth="no"/>
      <point x="490" y="667" type="line" smooth="no"/>
      <point x="496" y="442" type="line" smooth="no"/>
      <point x="620" y="666" type="line" smooth="no"/>
      <point x="789" y="666" type="line" smooth="no"/>
      <point x="462" y="0" type="line" smooth="no"/>
    </contour>
  </outline>
</glyph>
<glyph name="Z" format="1">
  <advance width="538"/>
  <unicode hex="005a"/>
  <outline>
    <contour>
      <point x="246" y="163" type="line" smooth="no"/>
      <point x="409" y="163" type="line" smooth="no"/>
      <point x="382" y="0" type="line" smooth="no"/>
      <point x="31" y="0" type="line" smooth="no"/>
      <point x="65" y="205" type="line" smooth="no"/>
      <point x="280" y="507" type="line" smooth="no"/>
      <point x="119" y="506" type="line" smooth="no"/>
      <point x="142" y="666" type="line" smooth="no"/>
      <point x="509" y="665" type="line" smooth="no"/>
      <point x="473" y="481" type="line" smooth="no"/>
    </contour>
  </outline>
</glyph>
<glyph name="bracketleft" format="1">
  <advance width="366"/>
  <unicode hex="005b"/>
  <outline>
    <contour>
      <point x="307" y="599" type="line" smooth="no"/>
      <point x="301" y="599"/>
      <point x="286" y="597"/>
      <point x="272" y="586"/>
      <point x="260" y="561"/>
      <point x="256" y="538" type="qcurve" smooth="yes"/>
      <point x="199" y="194" type="line" smooth="yes"/>
      <point x="196" y="171"/>
      <point x="199" y="144"/>
      <point x="209" y="128"/>
      <point x="223" y="122"/>
      <point x="229" y="120" type="qcurve" smooth="no"/>
      <point x="203" y="-53" type="line" smooth="no"/>
      <point x="154" y="-36"/>
      <point x="117" y="-6" type="qcurve" smooth="yes"/>
      <point x="101" y="6"/>
      <point x="72" y="39"/>
      <point x="52" y="81"/>
      <point x="44" y="132"/>
      <point x="49" y="162" type="qcurve" smooth="yes"/>
      <point x="86" y="386" type="line" smooth="yes"/>
      <point x="116" y="572"/>
      <point x="123" y="611" type="line" smooth="yes"/>
      <point x="128" y="642"/>
      <point x="152" y="688"/>
      <point x="184" y="721"/>
      <point x="221" y="743"/>
      <point x="239" y="750" type="qcurve" smooth="yes"/>
      <point x="282" y="766"/>
      <point x="334" y="766" type="qcurve" smooth="no"/>
    </contour>
  </outline>
</glyph>
<glyph name="bracketright" format="1">
  <advance width="366"/>
  <unicode hex="005d"/>
  <outline>
    <contour>
      <point x="58" y="114" type="line" smooth="no"/>
      <point x="64" y="114"/>
      <point x="79" y="116"/>
      <point x="93" y="127"/>
      <point x="105" y="152"/>
      <point x="109" y="175" type="qcurve" smooth="yes"/>
      <point x="166" y="519" type="line" smooth="yes"/>
      <point x="169" y="542"/>
      <point x="164" y="569"/>
      <point x="155" y="585"/>
      <point x="142" y="591"/>
      <point x="136" y="593" type="qcurve" smooth="no"/>
      <point x="162" y="766" type="line" smooth="no"/>
      <point x="211" y="749"/>
      <point x="248" y="720" type="qcurve" smooth="yes"/>
      <point x="264" y="708"/>
      <point x="293" y="675"/>
      <point x="314" y="633"/>
      <point x="323" y="582"/>
      <point x="320" y="551" type="qcurve" smooth="no"/>
      <point x="281" y="326" type="line" smooth="yes"/>
      <point x="259" y="204"/>
      <point x="254" y="172" type="qcurve" smooth="yes"/>
      <point x="248" y="135"/>
      <point x="242" y="102" type="qcurve" smooth="yes"/>
      <point x="237" y="71"/>
      <point x="213" y="25"/>
      <point x="181" y="-8"/>
      <point x="144" y="-30"/>
      <point x="126" y="-37" type="qcurve" smooth="yes"/>
      <point x="83" y="-53"/>
      <point x="31" y="-53" type="qcurve" smooth="no"/>
    </contour>
  </outline>
</glyph>
<glyph name="asciicircum" format="1">
  <advance width="602"/>
  <unicode hex="005e"/>
  <outline>
    <contour>
      <point x="63" y="361" type="line" smooth="no"/>
      <point x="349" y="619" type="line" smooth="no"/>
      <point x="560" y="359" type="line" smooth="no"/>
      <point x="422" y="358" type="line" smooth="no"/>
      <point x="341" y="450" type="line" smooth="no"/>
      <point x="206" y="361" type="line" smooth="no"/>
    </contour>
  </outline>
</glyph>
<glyph name="a" format="1">
  <advance width="623"/>
  <unicode hex="0061"/>
  <outline>
    <contour>
      <point x="577" y="469" type="line" smooth="no"/>
      <point x="498" y="-1" type="line" smooth="no"/>
      <point x="332" y="0" type="line" smooth="no"/>
      <point x="390" y="337" type="line" smooth="no"/>
      <point x="388" y="348" type="line" smooth="no"/>
      <point x="384" y="356"/>
      <point x="377" y="363" type="qcurve" smooth="yes"/>
      <point x="370" y="369"/>
      <point x="348" y="379"/>
      <point x="328" y="379" type="qcurve" smooth="yes"/>
      <point x="308" y="379"/>
      <point x="279" y="361"/>
      <point x="260" y="338"/>
      <point x="250" y="316"/>
      <point x="249" y="312" type="qcurve" smooth="yes"/>
      <point x="248" y="307"/>
      <point x="240" y="271"/>
      <point x="231" y="226"/>
      <point x="224" y="183"/>
      <point x="224" y="172" type="qcurve" smooth="yes"/>
      <point x="224" y="160"/>
      <point x="240" y="147"/>
      <point x="262" y="139"/>
      <point x="285" y="137"/>
      <point x="292" y="137" type="qcurve" smooth="yes"/>
      <point x="300" y="137"/>
      <point x="320" y="148"/>
      <point x="330" y="156" type="qcurve" smooth="yes"/>
      <point x="341" y="164"/>
      <point x="353" y="175" type="qcurve" smooth="no"/>
      <point x="332" y="61" type="line" smooth="no"/>
      <point x="309" y="44"/>
      <point x="273" y="20"/>
      <point x="240" y="5"/>
      <point x="206" y="-1"/>
      <point x="185" y="-1" type="qcurve" smooth="yes"/>
      <point x="152" y="-1"/>
      <point x="96" y="18"/>
      <point x="55" y="48"/>
      <point x="31" y="86"/>
      <point x="31" y="104" type="qcurve" smooth="yes"/>
      <point x="31" y="111"/>
      <point x="33" y="133"/>
      <point x="36" y="148" type="qcurve" smooth="yes"/>
      <point x="51" y="231" type="line" smooth="yes"/>
      <point x="69" y="325"/>
      <point x="72" y="337" type="qcurve" smooth="no"/>
      <point x="88" y="372"/>
      <point x="136" y="422"/>
      <point x="193" y="454"/>
      <point x="255" y="469"/>
      <point x="287" y="469" type="qcurve" smooth="yes"/>
      <point x="301" y="469"/>
      <point x="337" y="462"/>
      <point x="373" y="449"/>
      <point x="404" y="431"/>
      <point x="414" y="419" type="qcurve" smooth="no"/>
      <point x="422" y="469" type="line" smooth="no"/>
    </contour>
  </outline>
</glyph>
<glyph name="b" format="1">
  <advance width="617"/>
  <unicode hex="0062"/>
  <outline>
    <contour>
      <point x="339" y="666" type="line" smooth="no"/>
      <point x="249" y="124" type="line" smooth="no"/>
      <point x="256" y="115"/>
      <point x="265" y="108" type="qcurve" smooth="yes"/>
      <point x="273" y="102"/>
      <point x="294" y="93"/>
      <point x="308" y="93" type="qcurve" smooth="yes"/>
      <point x="327" y="93"/>
      <point x="355" y="105"/>
      <point x="374" y="122"/>
      <point x="385" y="139"/>
      <point x="388" y="145" type="qcurve" smooth="yes"/>
      <point x="390" y="150"/>
      <point x="397" y="178"/>
      <point x="408" y="237"/>
      <point x="409" y="242" type="qcurve" smooth="yes"/>
      <point x="411" y="251"/>
      <point x="411" y="288"/>
      <point x="406" y="300" type="qcurve" smooth="yes"/>
      <point x="401" y="313"/>
      <point x="377" y="320"/>
      <point x="357" y="318" type="qcurve" smooth="yes"/>
      <point x="347" y="317"/>
      <point x="324" y="307"/>
      <point x="313" y="300" type="qcurve" smooth="yes"/>
      <point x="301" y="292"/>
      <point x="289" y="282" type="qcurve" smooth="no"/>
      <point x="309" y="409" type="line" smooth="no"/>
      <point x="327" y="424"/>
      <point x="349" y="436" type="qcurve" smooth="yes"/>
      <point x="368" y="447"/>
      <point x="420" y="465"/>
      <point x="450" y="467" type="qcurve" smooth="yes"/>
      <point x="468" y="468"/>
      <point x="520" y="451"/>
      <point x="567" y="418"/>
      <point x="600" y="369"/>
      <point x="600" y="338" type="qcurve" smooth="yes"/>
      <point x="600" y="281"/>
      <point x="577" y="182"/>
      <point x="567" y="146" type="qcurve" smooth="yes"/>
      <point x="564" y="135"/>
      <point x="536" y="87"/>
      <point x="486" y="37"/>
      <point x="414" y="0"/>
      <point x="366" y="0" type="qcurve" smooth="yes"/>
      <point x="305" y="0"/>
      <point x="242" y="26"/>
      <point x="230" y="35" type="qcurve" smooth="no"/>
      <point x="223" y="0" type="line" smooth="no"/>
      <point x="50" y="0" type="line" smooth="no"/>
      <point x="159" y="666" type="line" smooth="no"/>
    </contour>
  </outline>
</glyph>
<glyph name="f" format="1">
  <advance width="472"/>
  <unicode hex="0066"/>
  <outline>
    <contour>
      <point x="513" y="583" type="line" smooth="no"/>
      <point x="511" y="584"/>
      <point x="494" y="585"/>
      <point x="473" y="587"/>
      <point x="454" y="588"/>
      <point x="450" y="588" type="qcurve" smooth="yes"/>
      <point x="403" y="588"/>
      <point x="353" y="554"/>
      <point x="329" y="506"/>
      <point x="318" y="436" type="line" smooth="no"/>
      <point x="422" y="436" type="line" smooth="no"/>
      <point x="405" y="335" type="line" smooth="no"/>
      <point x="296" y="334" type="line" smooth="no"/>
      <point x="237" y="0" type="line" smooth="no"/>
      <point x="75" y="-1" type="line" smooth="no"/>
      <point x="134" y="336" type="line" smooth="no"/>
      <point x="35" y="337" type="line" smooth="no"/>
      <point x="39" y="363"/>
      <point x="43" y="384" type="qcurve" smooth="yes"/>
      <point x="52" y="435"/>
      <point x="53" y="438" type="qcurve" smooth="no"/>
      <point x="155" y="438" type="line" smooth="no"/>
      <point x="166" y="499"/>
      <point x="185" y="583"/>
      <point x="224" y="634"/>
      <point x="296" y="656"/>
      <point x="359" y="656" type="qcurve" smooth="yes"/>
      <point x="378" y="656"/>
      <point x="423" y="654"/>
      <point x="466" y="650"/>
      <point x="507" y="644"/>
      <point x="523" y="641" type="qcurve" smooth="no"/>
    </contour>
  </outline>
</glyph>
<glyph name="h" format="1">
  <advance width="628"/>
  <unicode hex="0068"/>
  <outline>
    <contour>
      <point x="553" y="0" type="line" smooth="no"/>
      <point x="366" y="0" type="line" smooth="no"/>
      <point x="413" y="267" type="line" smooth="yes"/>
      <point x="417" y="293"/>
      <point x="391" y="329"/>
      <point x="365" y="328" type="qcurve" smooth="yes"/>
      <point x="330" y="327"/>
      <point x="288" y="297"/>
      <point x="263" y="251"/>
      <point x="251" y="196"/>
      <point x="247" y="170" type="qcurve" smooth="yes"/>
      <point x="219" y="0" type="line" smooth="no"/>
      <point x="38" y="0" type="line" smooth="no"/>
      <point x="145" y="666" type="line" smooth="no"/>
      <point x="325" y="666" type="line" smooth="no"/>
      <point x="282" y="395" type="line" smooth="no"/>
      <point x="352" y="434"/>
      <point x="399" y="455"/>
      <point x="449" y="468"/>
      <point x="475" y="468" type="qcurve" smooth="yes"/>
      <point x="532" y="468"/>
      <point x="608" y="402"/>
      <point x="609" y="342" type="qcurve" smooth="no"/>
    </contour>
  </outline>
</glyph>
<glyph name="i" format="1">
  <advance width="354"/>
  <unicode hex="0069"/>
  <outline>
    <contour>
      <point x="303" y="469" type="line" smooth="no"/>
      <point x="242" y="469" type="line" smooth="no"/>
      <point x="239" y="445" type="line" smooth="no"/>
      <point x="298" y="445" type="line" smooth="no"/>
      <point x="220" y="0" type="line" smooth="no"/>
      <point x="59" y="0" type="line" smooth="no"/>
      <point x="134" y="446" type="line" smooth="no"/>
      <point x="195" y="446" type="line" smooth="no"/>
      <point x="199" y="469" type="line" smooth="no"/>
      <point x="138" y="469" type="line" smooth="no"/>
      <point x="157" y="594" type="line" smooth="no"/>
      <point x="321" y="594" type="line" smooth="no"/>
    </contour>
  </outline>
</glyph>
<glyph name="j" format="1">
  <advance width="377"/>
  <unicode hex="006a"/>
  <outline>
    <contour>
      <point x="332" y="469" type="line" smooth="no"/>
      <point x="307" y="469" type="line" smooth="yes"/>
      <point x="296" y="469"/>
      <point x="275" y="468"/>
      <point x="267" y="469" type="qcurve" smooth="no"/>
      <point x="263" y="445" type="line" smooth="no"/>
      <point x="327" y="445" type="line" smooth="no"/>
      <point x="259" y="36" type="line" smooth="yes"/>
      <point x="250" y="-20"/>
      <point x="197" y="-108"/>
      <point x="119" y="-168"/>
      <point x="21" y="-199"/>
      <point x="-33" y="-200" type="qcurve" smooth="no"/>
      <point x="-89" y="-200" type="line" smooth="no"/>
      <point x="-75" y="-130" type="line" smooth="no"/>
      <point x="2" y="-123"/>
      <point x="69" y="-50"/>
      <point x="80" y="24" type="qcurve" smooth="yes"/>
      <point x="114" y="243"/>
      <point x="120" y="277" type="qcurve" smooth="yes"/>
      <point x="132" y="357"/>
      <point x="147" y="446" type="qcurve" smooth="no"/>
      <point x="215" y="446" type="line" smooth="no"/>
      <point x="219" y="468" type="line" smooth="no"/>
      <point x="151" y="468" type="line" smooth="no"/>
      <point x="172" y="594" type="line" smooth="no"/>
      <point x="350" y="594" type="line" smooth="no"/>
    </contour>
  </outline>
</glyph>
<glyph name="k" format="1">
  <advance width="571"/>
  <unicode hex="006b"/>
  <outline>
    <contour>
      <point x="553" y="316" type="qcurve" smooth="no"/>
      <point x="449" y="234"/>
      <point x="417" y="205" type="qcurve" smooth="no"/>
      <point x="501" y="87" type="line" smooth="yes"/>
      <point x="563" y="0" type="line" smooth="no"/>
      <point x="446" y="0" type="line" smooth="no"/>
      <point x="259" y="243" type="line" smooth="no"/>
      <point x="215" y="0" type="line" smooth="no"/>
      <point x="33" y="0" type="line" smooth="no"/>
      <point x="143" y="666" type="line" smooth="no"/>
      <point x="328" y="666" type="line" smooth="no"/>
      <point x="282" y="366" type="line" smooth="no"/>
      <point x="311" y="337" type="line" smooth="no"/>
      <point x="455" y="445" type="line" smooth="no"/>
      <point x="528" y="346"/>
    </contour>
  </outline>
</glyph>
<glyph name="l" format="1">
  <advance width="374"/>
  <unicode hex="006c"/>
  <outline>
    <contour>
      <point x="339" y="23" type="line" smooth="no"/>
      <point x="310" y="14"/>
      <point x="255" y="0"/>
      <point x="223" y="-1" type="qcurve" smooth="yes"/>
      <point x="197" y="-1"/>
      <point x="135" y="7"/>
      <point x="78" y="34"/>
      <point x="34" y="87"/>
      <point x="26" y="131" type="qcurve" smooth="no"/>
      <point x="25" y="177" type="line" smooth="no"/>
      <point x="83" y="490" type="line" smooth="yes"/>
      <point x="116" y="666" type="line" smooth="no"/>
      <point x="300" y="666" type="line" smooth="no"/>
      <point x="201" y="181" type="line" smooth="yes"/>
      <point x="189" y="119"/>
      <point x="233" y="66"/>
      <point x="299" y="67" type="qcurve" smooth="yes"/>
      <point x="310" y="67"/>
      <point x="337" y="73"/>
      <point x="348" y="75" type="qcurve" smooth="no"/>
    </contour>
  </outline>
</glyph>
<glyph name="m" format="1">
  <advance width="955"/>
  <unicode hex="006d"/>
  <outline>
    <contour>
      <point x="923" y="359" type="qcurve" smooth="yes"/>
      <point x="922" y="353"/>
      <point x="914" y="315"/>
      <point x="904" y="262"/>
      <point x="884" y="167" type="line" smooth="yes"/>
      <point x="849" y="0" type="line" smooth="no"/>
      <point x="668" y="0" type="line" smooth="no"/>
      <point x="732" y="304" type="line" smooth="yes"/>
      <point x="737" y="330"/>
      <point x="710" y="366"/>
      <point x="682" y="364" type="qcurve" smooth="no"/>
      <point x="649" y="363"/>
      <point x="598" y="329"/>
      <point x="590" y="296" type="qcurve" smooth="no"/>
      <point x="529" y="0" type="line" smooth="no"/>
      <point x="351" y="0" type="line" smooth="no"/>
      <point x="369" y="87" type="line" smooth="yes"/>
      <point x="377" y="122"/>
      <point x="397" y="222" type="line" smooth="yes"/>
      <point x="400" y="241"/>
      <point x="410" y="289"/>
      <point x="407" y="332"/>
      <point x="385" y="362"/>
      <point x="356" y="362" type="qcurve" smooth="yes"/>
      <point x="309" y="362"/>
      <point x="267" y="307"/>
      <point x="258" y="261" type="qcurve" smooth="yes"/>
      <point x="209" y="0" type="line" smooth="no"/>
      <point x="46" y="0" type="line" smooth="no"/>
      <point x="129" y="469" type="line" smooth="no"/>
      <point x="308" y="469" type="line" smooth="no"/>
      <point x="299" y="416" type="line" smooth="no"/>
      <point x="332" y="439"/>
      <point x="411" y="467"/>
      <point x="453" y="469" type="qcurve" smooth="yes"/>
      <point x="475" y="470"/>
      <point x="518" y="467"/>
      <point x="555" y="453"/>
      <point x="585" y="425"/>
      <point x="595" y="403" type="qcurve" smooth="no"/>
      <point x="601" y="408"/>
      <point x="642" y="430"/>
      <point x="701" y="452"/>
      <point x="775" y="469"/>
      <point x="814" y="469" type="qcurve" smooth="yes"/>
      <point x="837" y="469"/>
      <point x="880" y="454"/>
      <point x="912" y="425"/>
      <point x="927" y="384"/>
    </contour>
  </outline>
</glyph>
<glyph name="n" format="1">
  <advance width="643"/>
  <unicode hex="006e"/>
  <outline>
    <contour>
      <point x="567" y="0" type="line" smooth="no"/>
      <point x="368" y="0" type="line" smooth="no"/>
      <point x="426" y="323" type="line" smooth="yes"/>
      <point x="431" y="351"/>
      <point x="405" y="376"/>
      <point x="381" y="376" type="qcurve" smooth="yes"/>
      <point x="339" y="376"/>
      <point x="285" y="337"/>
      <point x="280" y="315" type="qcurve" smooth="yes"/>
      <point x="276" y="297"/>
      <point x="247" y="147"/>
      <point x="243" y="122" type="qcurve" smooth="yes"/>
      <point x="232" y="63"/>
      <point x="222" y="0" type="qcurve" smooth="no"/>
      <point x="47" y="0" type="line" smooth="no"/>
      <point x="132" y="469" type="line" smooth="no"/>
      <point x="308" y="469" type="line" smooth="no"/>
      <point x="298" y="411" type="line" smooth="no"/>
      <point x="313" y="424"/>
      <point x="364" y="446"/>
      <point x="423" y="463"/>
      <point x="479" y="472"/>
      <point x="498" y="472" type="qcurve" smooth="yes"/>
      <point x="526" y="472"/>
      <point x="574" y="460"/>
      <point x="607" y="433"/>
      <point x="623" y="391"/>
      <point x="619" y="361" type="qcurve" smooth="yes"/>
    </contour>
  </outline>
</glyph>
<glyph name="o" format="1">
  <advance width="500"/>
  <unicode hex="006f"/>
  <outline>
    <contour>
      <point x="326" y="472" type="line" smooth="no"/>
      <point x="337" y="472"/>
      <point x="388" y="463"/>
      <point x="441" y="437"/>
      <point x="481" y="394"/>
      <point x="482" y="361" type="qcurve" smooth="yes"/>
      <point x="482" y="350"/>
      <point x="475" y="304"/>
      <point x="466" y="251"/>
      <point x="456" y="201"/>
      <point x="453" y="188" type="qcurve" smooth="yes"/>
      <point x="446" y="159"/>
      <point x="405" y="93"/>
      <point x="335" y="36"/>
      <point x="235" y="-1"/>
      <point x="169" y="-1" type="qcurve" smooth="yes"/>
      <point x="121" y="-1"/>
      <point x="64" y="25"/>
      <point x="36" y="62"/>
      <point x="27" y="101"/>
      <point x="27" y="114" type="qcurve" smooth="yes"/>
      <point x="26" y="128"/>
      <point x="41" y="222" type="line" smooth="yes"/>
      <point x="47" y="260"/>
      <point x="56" y="304" type="qcurve" smooth="no"/>
      <point x="71" y="341"/>
      <point x="124" y="396"/>
      <point x="188" y="436"/>
      <point x="258" y="462"/>
      <point x="289" y="468" type="qcurve" smooth="no"/>
      <point x="267" y="342" type="line" smooth="no"/>
      <point x="262" y="338"/>
      <point x="254" y="328"/>
      <point x="250" y="320" type="qcurve" smooth="yes"/>
      <point x="242" y="305"/>
      <point x="230" y="263"/>
      <point x="221" y="221"/>
      <point x="215" y="185"/>
      <point x="214" y="175" type="qcurve" smooth="yes"/>
      <point x="213" y="171"/>
      <point x="214" y="161"/>
      <point x="222" y="152"/>
      <point x="240" y="145"/>
      <point x="257" y="145" type="qcurve" smooth="yes"/>
      <point x="300" y="145"/>
      <point x="342" y="177"/>
      <point x="347" y="189" type="qcurve" smooth="yes"/>
      <point x="349" y="195"/>
      <point x="358" y="230"/>
      <point x="375" y="308"/>
      <point x="377" y="316" type="qcurve" smooth="yes"/>
      <point x="380" y="332"/>
      <point x="363" y="363"/>
      <point x="337" y="363" type="qcurve" smooth="yes"/>
      <point x="320" y="363"/>
      <point x="298" y="357"/>
      <point x="291" y="354" type="qcurve" smooth="yes"/>
      <point x="283" y="350"/>
      <point x="278" y="346" type="qcurve" smooth="no"/>
      <point x="299" y="469" type="line" smooth="no"/>
    </contour>
  </outline>
</glyph>
<glyph name="p" format="1">
  <advance width="631"/>
  <unicode hex="0070"/>
  <outline>
    <contour>
      <point x="297" y="469" type="line" smooth="no"/>
      <point x="288" y="417" type="line" smooth="no"/>
      <point x="300" y="422"/>
      <point x="336" y="440"/>
      <point x="377" y="457"/>
      <point x="420" y="470"/>
      <point x="440" y="470" type="qcurve" smooth="yes"/>
      <point x="468" y="470"/>
      <point x="521" y="454"/>
      <point x="563" y="425"/>
      <point x="590" y="385"/>
      <point x="591" y="361" type="qcurve" smooth="yes"/>
      <point x="592" y="350"/>
      <point x="587" y="299"/>
      <point x="579" y="242"/>
      <point x="571" y="191"/>
      <point x="569" y="180" type="qcurve" smooth="yes"/>
      <point x="560" y="140"/>
      <point x="517" y="73"/>
      <point x="455" y="25"/>
      <point x="377" y="-1"/>
      <point x="335" y="-1" type="qcurve" smooth="yes"/>
      <point x="319" y="-1"/>
      <point x="283" y="3"/>
      <point x="267" y="6" type="qcurve" smooth="yes"/>
      <point x="249" y="9"/>
      <point x="231" y="13" type="qcurve" smooth="no"/>
      <point x="244" y="94" type="line" smooth="no"/>
      <point x="248" y="91"/>
      <point x="254" y="89" type="qcurve" smooth="yes"/>
      <point x="259" y="87"/>
      <point x="275" y="85"/>
      <point x="286" y="86" type="qcurve" smooth="yes"/>
      <point x="301" y="87"/>
      <point x="334" y="103"/>
      <point x="364" y="134"/>
      <point x="387" y="178"/>
      <point x="393" y="207" type="qcurve" smooth="yes"/>
      <point x="399" y="237"/>
      <point x="404" y="266"/>
      <point x="407" y="291"/>
      <point x="407" y="296" type="qcurve" smooth="yes"/>
      <point x="406" y="307"/>
      <point x="380" y="327"/>
      <point x="359" y="325" type="qcurve" smooth="yes"/>
      <point x="319" y="323"/>
      <point x="268" y="287"/>
      <point x="263" y="262" type="qcurve" smooth="yes"/>
      <point x="262" y="259"/>
      <point x="255" y="217"/>
      <point x="228" y="69"/>
      <point x="221" y="26" type="qcurve" smooth="yes"/>
      <point x="182" y="-200" type="line" smooth="no"/>
      <point x="11" y="-200" type="line" smooth="no"/>
      <point x="126" y="469" type="line" smooth="no"/>
    </contour>
  </outline>
</glyph>
<glyph name="q" format="1">
  <advance width="611"/>
  <unicode hex="0071"/>
  <outline>
    <contour>
      <point x="573" y="468" type="line" smooth="no"/>
      <point x="469" y="-200" type="line" smooth="no"/>
      <point x="297" y="-201" type="line" smooth="no"/>
      <point x="338" y="67" type="line" smooth="yes"/>
      <point x="373" y="291"/>
      <point x="380" y="340"/>
      <point x="380" y="342" type="qcurve" smooth="yes"/>
      <point x="379" y="349"/>
      <point x="349" y="371"/>
      <point x="328" y="371" type="qcurve" smooth="yes"/>
      <point x="310" y="371"/>
      <point x="282" y="359"/>
      <point x="262" y="341"/>
      <point x="250" y="319"/>
      <point x="249" y="309" type="qcurve" smooth="yes"/>
      <point x="238" y="251" type="line" smooth="yes"/>
      <point x="233" y="228"/>
      <point x="226" y="183"/>
      <point x="227" y="172" type="qcurve" smooth="no"/>
      <point x="227" y="160"/>
      <point x="239" y="144"/>
      <point x="254" y="135"/>
      <point x="271" y="131"/>
      <point x="277" y="131" type="qcurve" smooth="yes"/>
      <point x="288" y="131"/>
      <point x="310" y="141"/>
      <point x="320" y="148" type="qcurve" smooth="yes"/>
      <point x="331" y="156"/>
      <point x="342" y="166" type="qcurve" smooth="no"/>
      <point x="324" y="50" type="line" smooth="no"/>
      <point x="282" y="20"/>
      <point x="249" y="3"/>
      <point x="209" y="-9"/>
      <point x="182" y="-10" type="qcurve" smooth="yes"/>
      <point x="158" y="-11"/>
      <point x="104" y="5"/>
      <point x="60" y="35"/>
      <point x="31" y="78"/>
      <point x="31" y="104" type="qcurve" smooth="yes"/>
      <point x="31" y="110"/>
      <point x="35" y="136"/>
      <point x="41" y="170"/>
      <point x="53" y="232" type="line" smooth="yes"/>
      <point x="75" y="337" type="line" smooth="no"/>
      <point x="87" y="368"/>
      <point x="131" y="417"/>
      <point x="184" y="451"/>
      <point x="242" y="469"/>
      <point x="269" y="469" type="qcurve" smooth="yes"/>
      <point x="295" y="469"/>
      <point x="332" y="462"/>
      <point x="360" y="452"/>
      <point x="383" y="441"/>
      <point x="395" y="436" type="qcurve" smooth="no"/>
      <point x="402" y="469" type="line" smooth="no"/>
    </contour>
  </outline>
</glyph>
<glyph name="w" format="1">
  <advance width="905"/>
  <unicode hex="0077"/>
  <outline>
    <contour>
      <point x="589" y="0" type="line" smooth="no"/>
      <point x="407" y="0" type="line" smooth="no"/>
      <point x="388" y="161" type="line" smooth="no"/>
      <point x="240" y="0" type="line" smooth="no"/>
      <point x="47" y="0" type="line" smooth="no"/>
      <point x="31" y="469" type="line" smooth="no"/>
      <point x="209" y="469" type="line" smooth="no"/>
      <point x="227" y="199" type="line" smooth="no"/>
      <point x="441" y="469" type="line" smooth="no"/>
      <point x="550" y="469" type="line" smooth="no"/>
      <point x="551" y="410"/>
      <point x="553" y="355" type="qcurve" smooth="yes"/>
      <point x="554" y="332"/>
      <point x="555" y="282"/>
      <point x="557" y="236"/>
      <point x="559" y="195"/>
      <point x="560" y="180" type="qcurve" smooth="no"/>
      <point x="564" y="184"/>
      <point x="684" y="332" type="line" smooth="yes"/>
      <point x="791" y="469" type="line" smooth="no"/>
      <point x="945" y="469" type="line" smooth="no"/>
    </contour>
  </outline>
</glyph>
<glyph name="z" format="1">
  <advance width="601"/>
  <unicode hex="007a"/>
  <outline>
    <contour>
      <point x="538" y="366" type="line" smooth="no"/>
      <point x="318" y="108" type="line" smooth="no"/>
      <point x="484" y="108" type="line" smooth="no"/>
      <point x="464" y="0" type="line" smooth="no"/>
      <point x="31" y="0" type="line" smooth="no"/>
      <point x="45" y="78" type="line" smooth="no"/>
      <point x="284" y="353" type="line" smooth="no"/>
      <point x="91" y="353" type="line" smooth="no"/>
      <point x="108" y="469" type="line" smooth="no"/>
      <point x="553" y="469" type="line" smooth="no"/>
    </contour>
  </outline>
</glyph>
<glyph name="braceleft" format="1">
  <advance width="391"/>
  <unicode hex="007b"/>
  <outline>
    <contour>
      <point x="285" y="503" type="qcurve" smooth="yes"/>
      <point x="282" y="487"/>
      <point x="262" y="452"/>
      <point x="234" y="418"/>
      <point x="200" y="386"/>
      <point x="182" y="373" type="qcurve" smooth="no"/>
      <point x="215" y="312"/>
      <point x="233" y="272"/>
      <point x="243" y="238"/>
      <point x="241" y="228" type="qcurve" smooth="yes"/>
      <point x="238" y="215"/>
      <point x="235" y="200"/>
      <point x="231" y="174"/>
      <point x="229" y="162" type="qcurve" smooth="yes"/>
      <point x="225" y="133"/>
      <point x="252" y="94"/>
      <point x="268" y="85" type="qcurve" smooth="no"/>
      <point x="247" y="-68" type="line" smooth="no"/>
      <point x="199" y="-52"/>
      <point x="162" y="-23" type="qcurve" smooth="yes"/>
      <point x="130" y="2"/>
      <point x="81" y="85"/>
      <point x="86" y="147" type="qcurve" smooth="yes"/>
      <point x="88" y="162"/>
      <point x="91" y="176" type="qcurve" smooth="yes"/>
      <point x="97" y="211"/>
      <point x="99" y="219" type="qcurve" smooth="yes"/>
      <point x="101" y="234"/>
      <point x="87" y="276"/>
      <point x="65" y="319"/>
      <point x="38" y="360"/>
      <point x="26" y="374" type="qcurve" smooth="no"/>
      <point x="39" y="384"/>
      <point x="77" y="416"/>
      <point x="114" y="454"/>
      <point x="142" y="493"/>
      <point x="146" y="510" type="qcurve" smooth="no"/>
      <point x="160" y="598" type="line" smooth="yes"/>
      <point x="165" y="629"/>
      <point x="189" y="675"/>
      <point x="221" y="709"/>
      <point x="259" y="732"/>
      <point x="279" y="740" type="qcurve" smooth="yes"/>
      <point x="324" y="758"/>
      <point x="379" y="760" type="qcurve" smooth="no"/>
      <point x="353" y="615" type="line" smooth="no"/>
      <point x="339" y="611"/>
      <point x="300" y="578"/>
      <point x="291" y="546" type="qcurve" smooth="no"/>
      <point x="289" y="530" type="line" smooth="yes"/>
      <point x="286" y="508"/>
    </contour>
  </outline>
</glyph>
<glyph name="bar" format="1">
  <advance width="341"/>
  <unicode hex="007c"/>
  <outline>
    <contour>
      <point x="290" y="666" type="line" smooth="no"/>
      <point x="181" y="0" type="line" smooth="no"/>
      <point x="39" y="0" type="line" smooth="no"/>
      <point x="150" y="666" type="line" smooth="no"/>
    </contour>
  </outline>
</glyph>
<glyph name="Euro" format="1">
  <advance width="542"/>
  <unicode hex="00a4"/>
  <outline>
    <contour>
      <point x="146" y="445" type="line" smooth="no"/>
      <point x="149" y="457"/>
      <point x="154" y="485"/>
      <point x="165" y="538"/>
      <point x="168" y="546" type="qcurve" smooth="yes"/>
      <point x="183" y="581"/>
      <point x="233" y="632"/>
      <point x="294" y="665"/>
      <point x="361" y="681"/>
      <point x="393" y="681" type="qcurve" smooth="yes"/>
      <point x="404" y="681"/>
      <point x="440" y="677"/>
      <point x="482" y="666"/>
      <point x="524" y="644"/>
      <point x="541" y="626" type="qcurve" smooth="no"/>
      <point x="470" y="504" type="line" smooth="no"/>
      <point x="434" y="524"/>
      <point x="418" y="530"/>
      <point x="398" y="531"/>
      <point x="382" y="531" type="qcurve" smooth="yes"/>
      <point x="345" y="531"/>
      <point x="304" y="502"/>
      <point x="302" y="486" type="qcurve" smooth="yes"/>
      <point x="296" y="451" type="line" smooth="no"/>
      <point x="351" y="451" type="line" smooth="no"/>
      <point x="349" y="433"/>
      <point x="347" y="418" type="qcurve" smooth="yes"/>
      <point x="345" y="404"/>
      <point x="342" y="379"/>
      <point x="341" y="372" type="qcurve" smooth="no"/>
      <point x="282" y="372" type="line" smooth="no"/>
      <point x="276" y="334" type="line" smooth="no"/>
      <point x="335" y="334" type="line" smooth="no"/>
      <point x="328" y="279"/>
      <point x="323" y="253" type="qcurve" smooth="no"/>
      <point x="263" y="255" type="line" smooth="no"/>
      <point x="255" y="216" type="line" smooth="yes"/>
      <point x="254" y="208"/>
      <point x="254" y="186"/>
      <point x="263" y="165"/>
      <point x="285" y="151"/>
      <point x="306" y="151" type="qcurve" smooth="yes"/>
      <point x="352" y="151"/>
      <point x="418" y="167"/>
      <point x="427" y="172" type="qcurve" smooth="no"/>
      <point x="480" y="55" type="line" smooth="no"/>
      <point x="422" y="27"/>
      <point x="368" y="10"/>
      <point x="303" y="-1"/>
      <point x="264" y="-1" type="qcurve" smooth="yes"/>
      <point x="213" y="-1"/>
      <point x="145" y="25"/>
      <point x="106" y="63"/>
      <point x="92" y="104"/>
      <point x="93" y="119" type="qcurve" smooth="no"/>
      <point x="114" y="254" type="line" smooth="no"/>
      <point x="66" y="254" type="line" smooth="no"/>
      <point x="77" y="327" type="line" smooth="no"/>
      <point x="132" y="327" type="line" smooth="no"/>
      <point x="139" y="363" type="line" smooth="no"/>
      <point x="80" y="363" type="line" smooth="no"/>
      <point x="81" y="368"/>
      <point x="86" y="395"/>
      <point x="88" y="409" type="qcurve" smooth="yes"/>
      <point x="91" y="426"/>
      <point x="94" y="445" type="qcurve" smooth="no"/>
    </contour>
  </outline>
</glyph>
<glyph name="yen" format="1">
  <advance width="611"/>
  <unicode hex="00a5"/>
  <outline>
    <contour>
      <point x="198" y="315" type="line" smooth="no"/>
      <point x="201" y="340" type="line" smooth="no"/>
      <point x="55" y="340" type="line" smooth="no"/>
      <point x="75" y="460" type="line" smooth="no"/>
      <point x="165" y="460" type="line" smooth="no"/>
      <point x="61" y="666" type="line" smooth="no"/>
      <point x="239" y="666" type="line" smooth="no"/>
      <point x="303" y="509" type="line" smooth="no"/>
      <point x="396" y="666" type="line" smooth="no"/>
      <point x="593" y="666" type="line" smooth="no"/>
      <point x="465" y="460" type="line" smooth="no"/>
      <point x="558" y="460" type="line" smooth="no"/>
      <point x="536" y="340" type="line" smooth="no"/>
      <point x="391" y="340" type="line" smooth="no"/>
      <point x="375" y="315" type="line" smooth="no"/>
      <point x="532" y="315" type="line" smooth="no"/>
      <point x="510" y="195" type="line" smooth="no"/>
      <point x="359" y="195" type="line" smooth="no"/>
      <point x="343" y="0" type="line" smooth="no"/>
      <point x="155" y="-1" type="line" smooth="no"/>
      <point x="181" y="195" type="line" smooth="no"/>
      <point x="29" y="195" type="line" smooth="no"/>
      <point x="49" y="315" type="line" smooth="no"/>
    </contour>
  </outline>
</glyph>
<glyph name="brokenbar" format="1">
  <advance width="341"/>
  <unicode hex="00a6"/>
  <outline>
    <contour>
      <point x="231" y="304" type="line" smooth="no"/>
      <point x="181" y="0" type="line" smooth="no"/>
      <point x="39" y="0" type="line" smooth="no"/>
      <point x="91" y="304" type="line" smooth="no"/>
    </contour>
    <contour>
      <point x="292" y="666" type="line" smooth="no"/>
      <point x="242" y="362" type="line" smooth="no"/>
      <point x="100" y="362" type="line" smooth="no"/>
      <point x="152" y="666" type="line" smooth="no"/>
    </contour>
  </outline>
</glyph>
<glyph name="logicalnot" format="1">
  <advance width="638"/>
  <unicode hex="00ac"/>
  <outline>
    <contour>
      <point x="57" y="207" type="line" smooth="no"/>
      <point x="76" y="338" type="line" smooth="no"/>
      <point x="581" y="338" type="line" smooth="no"/>
      <point x="541" y="96" type="line" smooth="no"/>
      <point x="403" y="96" type="line" smooth="no"/>
      <point x="422" y="207" type="line" smooth="no"/>
    </contour>
  </outline>
</glyph>
<glyph name="plusminus" format="1">
  <advance width="483"/>
  <unicode hex="00b1"/>
  <outline>
    <contour>
      <point x="361" y="576" type="line" smooth="no"/>
      <point x="341" y="460" type="line" smooth="no"/>
      <point x="464" y="460" type="line" smooth="no"/>
      <point x="444" y="340" type="line" smooth="no"/>
      <point x="320" y="340" type="line" smooth="no"/>
      <point x="299" y="219" type="line" smooth="no"/>
      <point x="172" y="220" type="line" smooth="no"/>
      <point x="193" y="340" type="line" smooth="no"/>
      <point x="62" y="340" type="line" smooth="no"/>
      <point x="81" y="459" type="line" smooth="no"/>
      <point x="214" y="459" type="line" smooth="no"/>
      <point x="234" y="576" type="line" smooth="no"/>
    </contour>
    <contour>
      <point x="43" y="179" type="line" smooth="no"/>
      <point x="426" y="179" type="line" smooth="no"/>
      <point x="407" y="60" type="line" smooth="no"/>
      <point x="24" y="60" type="line" smooth="no"/>
    </contour>
  </outline>
</glyph>
<glyph name="mu" format="1">
  <advance width="640"/>
  <unicode hex="00b5"/>
  <unicode hex="03bc"/>
  <outline>
    <contour>
      <point x="316" y="93" type="qcurve" smooth="yes"/>
      <point x="340" y="93"/>
      <point x="370" y="124"/>
      <point x="374" y="141" type="qcurve" smooth="yes"/>
      <point x="407" y="328" type="line" smooth="yes"/>
      <point x="418" y="393"/>
      <point x="432" y="468" type="qcurve" smooth="no"/>
      <point x="597" y="469" type="line" smooth="no"/>
      <point x="514" y="0" type="line" smooth="no"/>
      <point x="351" y="0" type="line" smooth="no"/>
      <point x="355" y="23" type="line" smooth="no"/>
      <point x="341" y="14"/>
      <point x="309" y="1"/>
      <point x="273" y="-2"/>
      <point x="234" y="6"/>
      <point x="215" y="19" type="qcurve" smooth="no"/>
      <point x="182" y="-122" type="line" smooth="no"/>
      <point x="37" y="-122" type="line" smooth="no"/>
      <point x="138" y="469" type="line" smooth="no"/>
      <point x="301" y="469" type="line" smooth="no"/>
      <point x="288" y="396"/>
      <point x="277" y="340"/>
      <point x="272" y="310" type="qcurve" smooth="yes"/>
      <point x="244" y="151" type="line" smooth="no"/>
      <point x="242" y="133"/>
      <point x="255" y="110"/>
      <point x="277" y="97"/>
      <point x="304" y="93"/>
    </contour>
  </outline>
</glyph>
<glyph name="paragraph" format="1">
  <advance width="639"/>
  <unicode hex="00b6"/>
  <outline>
    <contour>
      <point x="341" y="0" type="line" smooth="no"/>
      <point x="183" y="0" type="line" smooth="no"/>
      <point x="271" y="497" type="line" smooth="no"/>
      <point x="229" y="497"/>
      <point x="193" y="489"/>
      <point x="162" y="470"/>
      <point x="158" y="450" type="qcurve" smooth="yes"/>
      <point x="156" y="444"/>
      <point x="156" y="418"/>
      <point x="170" y="386"/>
      <point x="202" y="355"/>
      <point x="232" y="343" type="qcurve" smooth="no"/>
      <point x="210" y="221" type="line" smooth="no"/>
      <point x="181" y="231"/>
      <point x="110" y="266"/>
      <point x="53" y="323"/>
      <point x="22" y="408"/>
      <point x="32" y="469" type="qcurve" smooth="yes"/>
      <point x="41" y="521"/>
      <point x="87" y="589"/>
      <point x="148" y="629"/>
      <point x="218" y="645"/>
      <point x="252" y="645" type="qcurve" smooth="yes"/>
      <point x="627" y="645" type="line" smooth="no"/>
      <point x="517" y="0" type="line" smooth="no"/>
      <point x="369" y="0" type="line" smooth="no"/>
      <point x="454" y="494" type="line" smooth="no"/>
      <point x="428" y="494" type="line" smooth="no"/>
    </contour>
  </outline>
</glyph>
<glyph name="cedilla" format="1">
  <advance width="1000"/>
  <unicode hex="00b8"/>
  <outline>
    <contour>
      <point x="271" y="5" type="line" smooth="no"/>
      <point x="198" y="-128" type="line" smooth="no"/>
      <point x="102" y="-128" type="line" smooth="no"/>
      <point x="143" y="8" type="line" smooth="no"/>
    </contour>
  </outline>
</glyph>
<glyph name="onesuperior" format="1">
  <advance width="378"/>
  <unicode hex="00b9"/>
  <outline>
    <contour>
      <point x="101" y="318" type="line" smooth="no"/>
      <point x="157" y="598" type="line" smooth="no"/>
      <point x="58" y="565" type="line" smooth="no"/>
      <point x="89" y="688" type="line" smooth="no"/>
      <point x="210" y="781" type="line" smooth="no"/>
      <point x="334" y="781" type="line" smooth="no"/>
      <point x="252" y="318" type="line" smooth="no"/>
    </contour>
  </outline>
</glyph>
<glyph name="ordmasculine" format="1">
  <advance width="500"/>
  <unicode hex="00ba"/>
  <outline>
    <contour>
      <point x="386" y="594" type="qcurve" smooth="yes"/>
      <point x="381" y="575"/>
      <point x="354" y="532"/>
      <point x="308" y="495"/>
      <point x="242" y="471"/>
      <point x="199" y="471" type="qcurve" smooth="yes"/>
      <point x="167" y="471"/>
      <point x="129" y="489"/>
      <point x="110" y="513"/>
      <point x="104" y="539"/>
      <point x="104" y="548" type="qcurve" smooth="yes"/>
      <point x="104" y="556"/>
      <point x="109" y="597"/>
      <point x="113" y="618" type="qcurve" smooth="yes"/>
      <point x="117" y="643"/>
      <point x="123" y="670" type="qcurve" smooth="no"/>
      <point x="132" y="703"/>
      <point x="177" y="744"/>
      <point x="227" y="767"/>
      <point x="271" y="776"/>
      <point x="280" y="778" type="qcurve" smooth="no"/>
      <point x="265" y="693" type="line" smooth="no"/>
      <point x="258" y="688"/>
      <point x="254" y="678" type="qcurve" smooth="yes"/>
      <point x="244" y="658"/>
      <point x="234" y="607"/>
      <point x="232" y="594" type="qcurve" smooth="yes"/>
      <point x="230" y="586"/>
      <point x="239" y="569"/>
      <point x="259" y="569" type="qcurve" smooth="yes"/>
      <point x="287" y="569"/>
      <point x="311" y="590"/>
      <point x="313" y="600" type="qcurve" smooth="yes"/>
      <point x="314" y="604"/>
      <point x="320" y="624"/>
      <point x="330" y="668"/>
      <point x="331" y="673" type="qcurve" smooth="yes"/>
      <point x="333" y="682"/>
      <point x="319" y="705"/>
      <point x="303" y="705" type="qcurve" smooth="yes"/>
      <point x="296" y="705"/>
      <point x="285" y="702"/>
      <point x="281" y="700" type="qcurve" smooth="yes"/>
      <point x="273" y="696" type="line" smooth="no"/>
      <point x="287" y="779" type="line" smooth="no"/>
      <point x="300" y="782" type="line" smooth="no"/>
      <point x="313" y="782"/>
      <point x="350" y="775"/>
      <point x="382" y="758"/>
      <point x="405" y="728"/>
      <point x="405" y="706" type="qcurve" smooth="yes"/>
      <point x="405" y="699"/>
      <point x="388" y="603"/>
    </contour>
  </outline>
</glyph>
<glyph name="onehalf" format="1">
  <advance width="866"/>
  <unicode hex="00bd"/>
  <outline>
    <contour>
      <point x="101" y="318" type="line" smooth="no"/>
      <point x="157" y="598" type="line" smooth="no"/>
      <point x="58" y="565" type="line" smooth="no"/>
      <point x="89" y="688" type="line" smooth="no"/>
      <point x="210" y="781" type="line" smooth="no"/>
      <point x="334" y="781" type="line" smooth="no"/>
      <point x="252" y="318" type="line" smooth="no"/>
    </contour>
    <contour>
      <point x="766" y="120" type="line" smooth="no"/>
      <point x="744" y="0" type="line" smooth="no"/>
      <point x="465" y="0" type="line" smooth="no"/>
      <point x="482" y="81"/>
      <point x="566" y="216"/>
      <point x="628" y="261" type="qcurve" smooth="yes"/>
      <point x="634" y="266"/>
      <point x="654" y="280"/>
      <point x="672" y="297"/>
      <point x="685" y="315"/>
      <point x="685" y="323" type="qcurve" smooth="yes"/>
      <point x="685" y="326"/>
      <point x="673" y="335"/>
      <point x="669" y="335" type="qcurve" smooth="yes"/>
      <point x="660" y="335"/>
      <point x="643" y="323"/>
      <point x="628" y="307"/>
      <point x="618" y="289"/>
      <point x="615" y="282" type="qcurve" smooth="no"/>
      <point x="524" y="336" type="line" smooth="no"/>
      <point x="531" y="359"/>
      <point x="553" y="404"/>
      <point x="591" y="440"/>
      <point x="646" y="463"/>
      <point x="685" y="463" type="qcurve" smooth="yes"/>
      <point x="707" y="463"/>
      <point x="752" y="449"/>
      <point x="789" y="418"/>
      <point x="812" y="369"/>
      <point x="812" y="335" type="qcurve" smooth="yes"/>
      <point x="812" y="300"/>
      <point x="776" y="245"/>
      <point x="679" y="149"/>
      <point x="666" y="120" type="qcurve" smooth="no"/>
    </contour>
    <contour>
      <point x="608" y="671" type="line" smooth="no"/>
      <point x="351" y="22" type="line" smooth="no"/>
      <point x="205" y="72" type="line" smooth="no"/>
      <point x="466" y="720" type="line" smooth="no"/>
    </contour>
  </outline>
</glyph>
<glyph name="threequarters" format="1">
  <advance width="866"/>
  <unicode hex="00be"/>
  <outline>
    <contour>
      <point x="608" y="671" type="line" smooth="no"/>
      <point x="351" y="22" type="line" smooth="no"/>
      <point x="205" y="72" type="line" smooth="no"/>
      <point x="466" y="720" type="line" smooth="no"/>
    </contour>
    <contour>
      <point x="806" y="180" type="line" smooth="no"/>
      <point x="790" y="84" type="line" smooth="no"/>
      <point x="752" y="84" type="line" smooth="no"/>
      <point x="736" y="0" type="line" smooth="no"/>
      <point x="590" y="0" type="line" smooth="no"/>
      <point x="627" y="221" type="line" smooth="no"/>
      <point x="608" y="197" type="line" smooth="no"/>
      <point x="584" y="86" type="line" smooth="no"/>
      <point x="453" y="86" type="line" smooth="no"/>
      <point x="475" y="200" type="line" smooth="no"/>
      <point x="671" y="463" type="line" smooth="no"/>
      <point x="816" y="463" type="line" smooth="no"/>
      <point x="769" y="179" type="line" smooth="no"/>
    </contour>
    <contour>
      <point x="293" y="624" type="line" smooth="no"/>
      <point x="315" y="608"/>
      <point x="323" y="577"/>
      <point x="322" y="573" type="qcurve" smooth="yes"/>
      <point x="320" y="550"/>
      <point x="309" y="468"/>
      <point x="299" y="419" type="qcurve" smooth="yes"/>
      <point x="288" y="365"/>
      <point x="208" y="318"/>
      <point x="138" y="318" type="qcurve" smooth="yes"/>
      <point x="100" y="318"/>
      <point x="58" y="342"/>
      <point x="38" y="374"/>
      <point x="34" y="403"/>
      <point x="34" y="409" type="qcurve" smooth="yes"/>
      <point x="34" y="414"/>
      <point x="35" y="424" type="qcurve" smooth="yes"/>
      <point x="36" y="440"/>
      <point x="45" y="487" type="qcurve" smooth="no"/>
      <point x="157" y="492" type="line" smooth="no"/>
      <point x="156" y="484"/>
      <point x="151" y="469"/>
      <point x="151" y="457"/>
      <point x="157" y="449"/>
      <point x="166" y="449" type="qcurve" smooth="yes"/>
      <point x="168" y="449"/>
      <point x="178" y="454"/>
      <point x="180" y="462" type="qcurve" smooth="yes"/>
      <point x="191" y="520" type="line" smooth="yes"/>
      <point x="191" y="525"/>
      <point x="184" y="534"/>
      <point x="176" y="534" type="qcurve" smooth="yes"/>
      <point x="171" y="534"/>
      <point x="166" y="532" type="qcurve" smooth="yes"/>
      <point x="154" y="529"/>
      <point x="139" y="519" type="qcurve" smooth="no"/>
      <point x="59" y="591" type="line" smooth="no"/>
      <point x="141" y="656" type="line" smooth="no"/>
      <point x="71" y="656" type="line" smooth="no"/>
      <point x="88" y="781" type="line" smooth="no"/>
      <point x="350" y="781" type="line" smooth="no"/>
      <point x="333" y="663" type="line" smooth="no"/>
    </contour>
  </outline>
</glyph>
<glyph name="Aacute" format="1">
  <advance width="629"/>
  <unicode hex="00c1"/>
  <outline>
    <contour>
      <point x="570" y="0" type="line" smooth="no"/>
      <point x="404" y="0" type="line" smooth="no"/>
      <point x="372" y="408" type="line" smooth="no"/>
      <point x="302" y="240" type="line" smooth="no"/>
      <point x="377" y="239" type="line" smooth="no"/>
      <point x="385" y="117" type="line" smooth="no"/>
      <point x="231" y="117" type="line" smooth="no"/>
      <point x="171" y="0" type="line" smooth="no"/>
      <point x="-23" y="0" type="line" smooth="no"/>
      <point x="260" y="531" type="line" smooth="yes"/>
      <point x="306" y="619"/>
      <point x="328" y="666" type="qcurve" smooth="no"/>
      <point x="382" y="666" type="line" smooth="no"/>
      <point x="426" y="781" type="line" smooth="no"/>
      <point x="555" y="781" type="line" smooth="no"/>
      <point x="522" y="666" type="line" smooth="no"/>
    </contour>
  </outline>
</glyph>
<glyph name="Acircumflex" format="1">
  <advance width="629"/>
  <unicode hex="00c2"/>
  <outline>
    <contour>
      <point x="360" y="724" type="line" smooth="no"/>
      <point x="496" y="795" type="line" smooth="no"/>
      <point x="616" y="744" type="line" smooth="no"/>
      <point x="573" y="664" type="line" smooth="no"/>
      <point x="479" y="701" type="line" smooth="no"/>
      <point x="421" y="665" type="line" smooth="no"/>
      <point x="508" y="666" type="line" smooth="no"/>
      <point x="559" y="0" type="line" smooth="no"/>
      <point x="392" y="0" type="line" smooth="no"/>
      <point x="360" y="408" type="line" smooth="no"/>
      <point x="289" y="240" type="line" smooth="no"/>
      <point x="365" y="239" type="line" smooth="no"/>
      <point x="372" y="117" type="line" smooth="no"/>
      <point x="218" y="117" type="line" smooth="no"/>
      <point x="158" y="0" type="line" smooth="no"/>
      <point x="-34" y="0" type="line" smooth="no"/>
      <point x="314" y="665" type="line" smooth="no"/>
      <point x="352" y="666" type="line" smooth="no"/>
    </contour>
  </outline>
</glyph>
<glyph name="Atilde" format="1">
  <advance width="629"/>
  <unicode hex="00c3"/>
  <outline>
    <contour>
      <point x="260" y="763" type="line" smooth="no"/>
      <point x="276" y="771"/>
      <point x="332" y="788"/>
      <point x="358" y="788" type="qcurve" smooth="yes"/>
      <point x="377" y="788"/>
      <point x="422" y="780"/>
      <point x="470" y="769"/>
      <point x="518" y="761"/>
      <point x="541" y="761" type="qcurve" smooth="yes"/>
      <point x="547" y="761"/>
      <point x="565" y="768"/>
      <point x="574" y="773" type="qcurve" smooth="yes"/>
      <point x="585" y="778"/>
      <point x="596" y="785" type="qcurve" smooth="no"/>
      <point x="586" y="662" type="line" smooth="no"/>
      <point x="580" y="658"/>
      <point x="542" y="650"/>
      <point x="529" y="653" type="qcurve" smooth="no"/>
      <point x="574" y="0" type="line" smooth="no"/>
      <point x="408" y="0" type="line" smooth="no"/>
      <point x="375" y="408" type="line" smooth="no"/>
      <point x="305" y="240" type="line" smooth="no"/>
      <point x="380" y="239" type="line" smooth="no"/>
      <point x="388" y="117" type="line" smooth="no"/>
      <point x="234" y="117" type="line" smooth="no"/>
      <point x="174" y="0" type="line" smooth="no"/>
      <point x="-16" y="0" type="line" smooth="no"/>
      <point x="150" y="306" type="line" smooth="yes"/>
      <point x="336" y="652"/>
      <point x="342" y="666" type="qcurve" smooth="no"/>
      <point x="327" y="669"/>
      <point x="295" y="666"/>
      <point x="281" y="662" type="qcurve" smooth="yes"/>
      <point x="265" y="658"/>
      <point x="250" y="651" type="qcurve" smooth="no"/>
      <point x="260" y="763" type="line" smooth="no"/>
    </contour>
  </outline>
</glyph>
<glyph name="Aring" format="1">
  <advance width="629"/>
  <unicode hex="00c5"/>
  <outline>
    <contour>
      <point x="558" y="0" type="line" smooth="no"/>
      <point x="391" y="0" type="line" smooth="no"/>
      <point x="360" y="408" type="line" smooth="no"/>
      <point x="289" y="240" type="line" smooth="no"/>
      <point x="365" y="239" type="line" smooth="no"/>
      <point x="371" y="117" type="line" smooth="no"/>
      <point x="218" y="117" type="line" smooth="no"/>
      <point x="158" y="0" type="line" smooth="no"/>
      <point x="-33" y="0" type="line" smooth="no"/>
      <point x="317" y="649" type="line" smooth="no"/>
      <point x="313" y="657" type="line" smooth="yes"/>
      <point x="310" y="664"/>
      <point x="310" y="676" type="qcurve" smooth="yes"/>
      <point x="310" y="695"/>
      <point x="321" y="733"/>
      <point x="347" y="763"/>
      <point x="390" y="781"/>
      <point x="422" y="781" type="qcurve" smooth="yes"/>
      <point x="460" y="781"/>
      <point x="504" y="758"/>
      <point x="527" y="725"/>
      <point x="533" y="688"/>
      <point x="533" y="674" type="qcurve" smooth="yes"/>
      <point x="533" y="659"/>
      <point x="522" y="630"/>
      <point x="517" y="624" type="qcurve" smooth="no"/>
      <point x="450" y="667" type="line" smooth="no"/>
      <point x="452" y="673"/>
      <point x="443" y="699"/>
      <point x="427" y="699" type="qcurve" smooth="yes"/>
      <point x="410" y="699"/>
      <point x="396" y="680"/>
      <point x="396" y="673" type="qcurve" smooth="yes"/>
      <point x="396" y="662"/>
      <point x="411" y="645"/>
      <point x="422" y="645" type="qcurve" smooth="yes"/>
      <point x="434" y="645"/>
      <point x="441" y="652" type="qcurve" smooth="yes"/>
      <point x="445" y="655"/>
      <point x="447" y="659" type="qcurve" smooth="no"/>
      <point x="514" y="617" type="line" smooth="no"/>
    </contour>
  </outline>
</glyph>
<glyph name="Ccedilla" format="1">
  <advance width="515"/>
  <unicode hex="00c7"/>
  <outline>
    <contour>
      <point x="349" y="431" type="line" smooth="no"/>
      <point x="351" y="440"/>
      <point x="352" y="454"/>
      <point x="353" y="459" type="qcurve" smooth="yes"/>
      <point x="354" y="465"/>
      <point x="355" y="470" type="qcurve" smooth="yes"/>
      <point x="356" y="475"/>
      <point x="355" y="497"/>
      <point x="347" y="519"/>
      <point x="329" y="535"/>
      <point x="314" y="535" type="qcurve" smooth="yes"/>
      <point x="300" y="535"/>
      <point x="279" y="513"/>
      <point x="264" y="481"/>
      <point x="255" y="445"/>
      <point x="252" y="430" type="qcurve" smooth="yes"/>
      <point x="213" y="243"/>
      <point x="210" y="222" type="qcurve" smooth="yes"/>
      <point x="204" y="180"/>
      <point x="221" y="136"/>
      <point x="247" y="136" type="qcurve" smooth="yes"/>
      <point x="259" y="136"/>
      <point x="279" y="152"/>
      <point x="294" y="174"/>
      <point x="304" y="197"/>
      <point x="305" y="204" type="qcurve" smooth="yes"/>
      <point x="306" y="209"/>
      <point x="307" y="217" type="qcurve" smooth="yes"/>
      <point x="308" y="224"/>
      <point x="310" y="242"/>
      <point x="312" y="256" type="qcurve" smooth="no"/>
      <point x="435" y="256" type="line" smooth="no"/>
      <point x="426" y="204"/>
      <point x="422" y="185" type="qcurve" smooth="yes"/>
      <point x="419" y="173"/>
      <point x="418" y="165" type="qcurve" smooth="no"/>
      <point x="404" y="126"/>
      <point x="366" y="70"/>
      <point x="320" y="31"/>
      <point x="269" y="7"/>
      <point x="243" y="1" type="qcurve" smooth="no"/>
      <point x="245" y="-10"/>
      <point x="243" y="-32"/>
      <point x="243" y="-43" type="qcurve" smooth="no"/>
      <point x="241" y="-56"/>
      <point x="235" y="-67" type="qcurve" smooth="yes"/>
      <point x="230" y="-77"/>
      <point x="207" y="-98"/>
      <point x="187" y="-105" type="qcurve" smooth="no"/>
      <point x="184" y="-84"/>
      <point x="171" y="-60"/>
      <point x="158" y="-50"/>
      <point x="148" y="-48"/>
      <point x="147" y="-48" type="qcurve" smooth="yes"/>
      <point x="139" y="-48" type="line" smooth="yes"/>
      <point x="135" y="-48"/>
      <point x="124" y="-49"/>
      <point x="119" y="-50" type="qcurve" smooth="no"/>
      <point x="118" y="-45"/>
      <point x="117" y="-14"/>
      <point x="127" y="18" type="qcurve" smooth="no"/>
      <point x="92" y="28"/>
      <point x="59" y="79"/>
      <point x="47" y="133"/>
      <point x="49" y="176" type="line" smooth="yes"/>
      <point x="50" y="184"/>
      <point x="58" y="237"/>
      <point x="102" y="502"/>
      <point x="103" y="507" type="qcurve" smooth="yes"/>
      <point x="106" y="529"/>
      <point x="141" y="584"/>
      <point x="200" y="633"/>
      <point x="278" y="666"/>
      <point x="325" y="666" type="qcurve" smooth="yes"/>
      <point x="362" y="666"/>
      <point x="417" y="640"/>
      <point x="455" y="604"/>
      <point x="477" y="567"/>
      <point x="480" y="556" type="qcurve" smooth="yes"/>
      <point x="482" y="546"/>
      <point x="482" y="529" type="qcurve" smooth="yes"/>
      <point x="482" y="514"/>
      <point x="478" y="466"/>
      <point x="473" y="431" type="qcurve" smooth="no"/>
    </contour>
  </outline>
</glyph>
<glyph name="Edieresis" format="1">
  <advance width="452"/>
  <unicode hex="00cb"/>
  <outline>
    <contour>
      <point x="468" y="781" type="line" smooth="no"/>
      <point x="449" y="645" type="line" smooth="no"/>
      <point x="422" y="645" type="line" smooth="no"/>
      <point x="406" y="522" type="line" smooth="no"/>
      <point x="266" y="522" type="line" smooth="no"/>
      <point x="248" y="395" type="line" smooth="no"/>
      <point x="386" y="395" type="line" smooth="no"/>
      <point x="365" y="267" type="line" smooth="no"/>
      <point x="223" y="267" type="line" smooth="no"/>
      <point x="203" y="146" type="line" smooth="no"/>
      <point x="346" y="147" type="line" smooth="no"/>
      <point x="318" y="2" type="line" smooth="no"/>
      <point x="243" y="1"/>
      <point x="182" y="1" type="qcurve" smooth="yes"/>
      <point x="31" y="1" type="line" smooth="no"/>
      <point x="86" y="335" type="line" smooth="yes"/>
      <point x="136" y="644" type="line" smooth="no"/>
      <point x="76" y="644" type="line" smooth="no"/>
      <point x="96" y="781" type="line" smooth="no"/>
      <point x="234" y="781" type="line" smooth="no"/>
      <point x="215" y="666" type="line" smooth="no"/>
      <point x="306" y="666" type="line" smooth="no"/>
      <point x="324" y="781" type="line" smooth="no"/>
    </contour>
  </outline>
</glyph>
<glyph name="Icircumflex" format="1">
  <advance width="333"/>
  <unicode hex="00ce"/>
  <outline>
    <contour>
      <point x="117" y="707" type="qcurve" smooth="no"/>
      <point x="130" y="716"/>
      <point x="267" y="794" type="line" smooth="no"/>
      <point x="375" y="743" type="line" smooth="no"/>
      <point x="327" y="651" type="line" smooth="no"/>
      <point x="264" y="672"/>
      <point x="257" y="674" type="qcurve" smooth="no"/>
      <point x="252" y="670"/>
      <point x="223" y="650" type="line" smooth="yes"/>
      <point x="212" y="642"/>
      <point x="198" y="634" type="qcurve" smooth="no"/>
      <point x="293" y="635" type="line" smooth="no"/>
      <point x="185" y="0" type="line" smooth="no"/>
      <point x="37" y="0" type="line" smooth="no"/>
      <point x="140" y="622" type="line" smooth="no"/>
      <point x="135" y="648"/>
      <point x="122" y="683"/>
    </contour>
  </outline>
</glyph>
<glyph name="Idieresis" format="1">
  <advance width="336"/>
  <unicode hex="00cf"/>
  <outline>
    <contour>
      <point x="436" y="781" type="line" smooth="no"/>
      <point x="408" y="645" type="line" smooth="no"/>
      <point x="304" y="645" type="line" smooth="no"/>
      <point x="192" y="-1" type="line" smooth="no"/>
      <point x="44" y="-1" type="line" smooth="no"/>
      <point x="152" y="646" type="line" smooth="no"/>
      <point x="40" y="646" type="line" smooth="no"/>
      <point x="61" y="781" type="line" smooth="no"/>
      <point x="200" y="781" type="line" smooth="no"/>
      <point x="181" y="665" type="line" smooth="no"/>
      <point x="276" y="665" type="line" smooth="no"/>
      <point x="297" y="781" type="line" smooth="no"/>
    </contour>
  </outline>
</glyph>
<glyph name="Ntilde" format="1">
  <advance width="581"/>
  <unicode hex="00d1"/>
  <outline>
    <contour>
      <point x="203" y="754" type="line" smooth="no"/>
      <point x="218" y="761"/>
      <point x="233" y="766" type="qcurve" smooth="yes"/>
      <point x="246" y="771"/>
      <point x="274" y="780"/>
      <point x="286" y="783" type="qcurve" smooth="yes"/>
      <point x="298" y="786"/>
      <point x="329" y="784"/>
      <point x="361" y="781"/>
      <point x="390" y="776"/>
      <point x="401" y="776" type="qcurve" smooth="yes"/>
      <point x="412" y="775"/>
      <point x="438" y="778"/>
      <point x="449" y="780" type="qcurve" smooth="yes"/>
      <point x="476" y="784" type="line" smooth="yes"/>
      <point x="539" y="796" type="line" smooth="no"/>
      <point x="524" y="701" type="line" smooth="no"/>
      <point x="499" y="693" type="line" smooth="yes"/>
      <point x="488" y="690"/>
      <point x="465" y="685"/>
      <point x="457" y="685" type="qcurve" smooth="yes"/>
      <point x="419" y="685"/>
      <point x="341" y="690"/>
      <point x="319" y="689"/>
      <point x="305" y="685" type="qcurve" smooth="yes"/>
      <point x="277" y="677"/>
      <point x="255" y="663"/>
      <point x="249" y="657" type="qcurve" smooth="no"/>
      <point x="294" y="657" type="line" smooth="no"/>
      <point x="365" y="485" type="line" smooth="no"/>
      <point x="392" y="658" type="line" smooth="no"/>
      <point x="546" y="658" type="line" smooth="no"/>
      <point x="439" y="0" type="line" smooth="no"/>
      <point x="278" y="0" type="line" smooth="no"/>
      <point x="287" y="58"/>
      <point x="295" y="103" type="qcurve" smooth="yes"/>
      <point x="298" y="122"/>
      <point x="305" y="159"/>
      <point x="313" y="206" type="line" smooth="no"/>
      <point x="308" y="214"/>
      <point x="303" y="223" type="qcurve" smooth="yes"/>
      <point x="287" y="249"/>
      <point x="282" y="259" type="qcurve" smooth="yes"/>
      <point x="251" y="312" type="line" smooth="no"/>
      <point x="196" y="0" type="line" smooth="no"/>
      <point x="37" y="0" type="line" smooth="no"/>
      <point x="145" y="656" type="line" smooth="no"/>
      <point x="189" y="656" type="line" smooth="no"/>
    </contour>
  </outline>
</glyph>
<glyph name="Odieresis" format="1">
  <advance width="508"/>
  <unicode hex="00d6"/>
  <outline>
    <contour>
      <point x="524" y="781" type="line" smooth="no"/>
      <point x="500" y="643" type="line" smooth="no"/>
      <point x="428" y="643" type="line" smooth="no"/>
      <point x="446" y="630"/>
      <point x="466" y="600"/>
      <point x="471" y="586" type="qcurve" smooth="yes"/>
      <point x="477" y="570"/>
      <point x="479" y="553" type="qcurve" smooth="no"/>
      <point x="477" y="544"/>
      <point x="468" y="485"/>
      <point x="413" y="168"/>
      <point x="411" y="155" type="qcurve" smooth="yes"/>
      <point x="408" y="136"/>
      <point x="387" y="83"/>
      <point x="343" y="34"/>
      <point x="273" y="0"/>
      <point x="221" y="0" type="qcurve" smooth="yes"/>
      <point x="187" y="0"/>
      <point x="123" y="12"/>
      <point x="72" y="42"/>
      <point x="40" y="92"/>
      <point x="38" y="130" type="qcurve" smooth="yes"/>
      <point x="38" y="142"/>
      <point x="39" y="161"/>
      <point x="39" y="164" type="qcurve" smooth="yes"/>
      <point x="40" y="173"/>
      <point x="95" y="499" type="line" smooth="yes"/>
      <point x="99" y="525"/>
      <point x="122" y="571"/>
      <point x="151" y="608"/>
      <point x="184" y="635"/>
      <point x="198" y="643" type="qcurve" smooth="no"/>
      <point x="113" y="643" type="line" smooth="no"/>
      <point x="132" y="781" type="line" smooth="no"/>
      <point x="280" y="781" type="line" smooth="no"/>
      <point x="263" y="663" type="line" smooth="no"/>
      <point x="283" y="667"/>
      <point x="312" y="666"/>
      <point x="315" y="666" type="qcurve" smooth="yes"/>
      <point x="328" y="666"/>
      <point x="340" y="664"/>
      <point x="346" y="662" type="qcurve" smooth="no"/>
      <point x="315" y="498" type="line" smooth="no"/>
      <point x="306" y="501"/>
      <point x="284" y="499"/>
      <point x="261" y="488"/>
      <point x="242" y="467"/>
      <point x="236" y="451" type="qcurve" smooth="yes"/>
      <point x="233" y="442"/>
      <point x="223" y="399"/>
      <point x="195" y="235"/>
      <point x="190" y="200"/>
      <point x="190" y="196" type="qcurve" smooth="yes"/>
      <point x="190" y="183"/>
      <point x="202" y="164"/>
      <point x="222" y="164" type="qcurve" smooth="yes"/>
      <point x="251" y="164"/>
      <point x="272" y="193"/>
      <point x="277" y="222" type="qcurve" smooth="yes"/>
      <point x="366" y="723"/>
      <point x="377" y="780" type="line" smooth="no"/>
    </contour>
  </outline>
</glyph>
<glyph name="Ugrave" format="1">
  <advance width="549"/>
  <unicode hex="00d9"/>
  <outline>
    <contour>
      <point x="421" y="666" type="line" smooth="no"/>
      <point x="523" y="666" type="line" smooth="no"/>
      <point x="440" y="140" type="line" smooth="yes"/>
      <point x="436" y="116"/>
      <point x="405" y="67"/>
      <point x="353" y="26"/>
      <point x="281" y="0"/>
      <point x="236" y="0" type="qcurve" smooth="yes"/>
      <point x="166" y="0"/>
      <point x="90" y="45"/>
      <point x="54" y="103"/>
      <point x="48" y="157"/>
      <point x="48" y="166" type="qcurve" smooth="no"/>
      <point x="85" y="409" type="line" smooth="yes"/>
      <point x="123" y="662"/>
      <point x="123" y="666" type="qcurve" smooth="no"/>
      <point x="280" y="666" type="line" smooth="no"/>
      <point x="223" y="282" type="line" smooth="yes"/>
      <point x="214" y="219"/>
      <point x="239" y="167"/>
      <point x="267" y="167" type="qcurve" smooth="yes"/>
      <point x="279" y="167"/>
      <point x="294" y="181"/>
      <point x="303" y="203"/>
      <point x="308" y="228"/>
      <point x="310" y="239" type="qcurve" smooth="yes"/>
      <point x="374" y="625" type="line" smooth="no"/>
      <point x="335" y="625" type="line" smooth="no"/>
      <point x="285" y="781" type="line" smooth="no"/>
      <point x="396" y="781" type="line" smooth="no"/>
    </contour>
  </outline>
</glyph>
<glyph name="Ucircumflex" format="1">
  <advance width="549"/>
  <unicode hex="00db"/>
  <outline>
    <contour>
      <point x="143" y="722" type="line" smooth="no"/>
      <point x="279" y="793" type="line" smooth="no"/>
      <point x="396" y="740" type="line" smooth="no"/>
      <point x="357" y="661" type="line" smooth="no"/>
      <point x="259" y="699" type="line" smooth="no"/>
      <point x="200" y="652" type="line" smooth="no"/>
      <point x="276" y="652" type="line" smooth="no"/>
      <point x="223" y="282" type="line" smooth="yes"/>
      <point x="214" y="219"/>
      <point x="225" y="167"/>
      <point x="253" y="167" type="qcurve" smooth="yes"/>
      <point x="269" y="167"/>
      <point x="289" y="181"/>
      <point x="302" y="203"/>
      <point x="308" y="228"/>
      <point x="310" y="239" type="qcurve" smooth="yes"/>
      <point x="366" y="652" type="line" smooth="no"/>
      <point x="521" y="652" type="line" smooth="no"/>
      <point x="440" y="140" type="line" smooth="yes"/>
      <point x="436" y="116"/>
      <point x="405" y="67"/>
      <point x="353" y="26"/>
      <point x="281" y="0"/>
      <point x="236" y="0" type="qcurve" smooth="yes"/>
      <point x="189" y="0"/>
      <point x="125" y="21"/>
      <point x="82" y="53"/>
      <point x="59" y="92"/>
      <point x="49" y="129"/>
      <point x="47" y="159"/>
      <point x="48" y="166" type="qcurve" smooth="yes"/>
      <point x="124" y="652" type="line" smooth="no"/>
      <point x="145" y="652" type="line" smooth="no"/>
    </contour>
  </outline>
</glyph>
<glyph name="Yacute" format="1">
  <advance width="571"/>
  <unicode hex="00dd"/>
  <outline>
    <contour>
      <point x="577" y="666" type="line" smooth="no"/>
      <point x="351" y="303" type="line" smooth="no"/>
      <point x="308" y="0" type="line" smooth="no"/>
      <point x="128" y="0" type="line" smooth="no"/>
      <point x="190" y="377" type="line" smooth="no"/>
      <point x="45" y="666" type="line" smooth="no"/>
      <point x="144" y="666" type="line" smooth="no"/>
      <point x="194" y="780" type="line" smooth="no"/>
      <point x="356" y="781" type="line" smooth="no"/>
      <point x="240" y="624" type="line" smooth="no"/>
      <point x="287" y="509" type="line" smooth="no"/>
      <point x="375" y="666" type="line" smooth="no"/>
    </contour>
  </outline>
</glyph>
<glyph name="germandbls" format="1">
  <advance width="588"/>
  <unicode hex="00df"/>
  <outline>
    <contour>
      <point x="423" y="371" type="qcurve" smooth="no"/>
      <point x="441" y="365"/>
      <point x="483" y="339"/>
      <point x="519" y="296"/>
      <point x="540" y="233"/>
      <point x="536" y="190" type="qcurve" smooth="no"/>
      <point x="532" y="161"/>
      <point x="503" y="95"/>
      <point x="453" y="38"/>
      <point x="381" y="0"/>
      <point x="333" y="0" type="qcurve" smooth="no"/>
      <point x="346" y="-1"/>
      <point x="348" y="-1" type="qcurve" smooth="yes"/>
      <point x="350" y="-1"/>
      <point x="332" y="-1"/>
      <point x="300" y="0" type="qcurve" smooth="no"/>
      <point x="321" y="134" type="line" smooth="no"/>
      <point x="329" y="134"/>
      <point x="349" y="143"/>
      <point x="367" y="158"/>
      <point x="381" y="179"/>
      <point x="383" y="190" type="qcurve" smooth="yes"/>
      <point x="389" y="220"/>
      <point x="381" y="272"/>
      <point x="357" y="311"/>
      <point x="321" y="333"/>
      <point x="299" y="333" type="qcurve" smooth="no"/>
      <point x="316" y="429" type="line" smooth="no"/>
      <point x="342" y="429"/>
      <point x="373" y="437"/>
      <point x="390" y="449"/>
      <point x="396" y="463"/>
      <point x="397" y="469" type="qcurve" smooth="yes"/>
      <point x="399" y="481"/>
      <point x="388" y="497"/>
      <point x="369" y="507"/>
      <point x="347" y="511"/>
      <point x="338" y="511" type="qcurve" smooth="yes"/>
      <point x="310" y="511" type="line" smooth="no"/>
      <point x="220" y="0" type="line" smooth="no"/>
      <point x="58" y="0" type="line" smooth="no"/>
      <point x="169" y="658" type="line" smooth="no"/>
      <point x="364" y="658" type="line" smooth="yes"/>
      <point x="382" y="658"/>
      <point x="440" y="641"/>
      <point x="492" y="598"/>
      <point x="525" y="525"/>
      <point x="518" y="469" type="qcurve" smooth="yes"/>
      <point x="516" y="458"/>
      <point x="500" y="428"/>
      <point x="475" y="399"/>
      <point x="442" y="375"/>
    </contour>
  </outline>
</glyph>
<glyph name="egrave" format="1">
  <advance width="471"/>
  <unicode hex="00e8"/>
  <outline>
    <contour>
      <point x="161" y="594" type="line" smooth="no"/>
      <point x="313" y="594" type="line" smooth="no"/>
      <point x="345" y="458" type="line" smooth="no"/>
      <point x="378" y="447"/>
      <point x="424" y="399"/>
      <point x="429" y="361" type="qcurve" smooth="no"/>
      <point x="433" y="321"/>
      <point x="405" y="271"/>
      <point x="362" y="243"/>
      <point x="316" y="231"/>
      <point x="302" y="230" type="qcurve" smooth="yes"/>
      <point x="294" y="229"/>
      <point x="265" y="229"/>
      <point x="250" y="230" type="qcurve" smooth="no"/>
      <point x="232" y="230"/>
      <point x="213" y="231" type="qcurve" smooth="no"/>
      <point x="228" y="287" type="line" smooth="no"/>
      <point x="234" y="288"/>
      <point x="242" y="289" type="qcurve" smooth="yes"/>
      <point x="249" y="290"/>
      <point x="266" y="292"/>
      <point x="275" y="294" type="qcurve" smooth="no"/>
      <point x="307" y="297"/>
      <point x="328" y="328"/>
      <point x="326" y="339" type="qcurve" smooth="yes"/>
      <point x="326" y="340"/>
      <point x="324" y="348"/>
      <point x="318" y="357"/>
      <point x="307" y="364"/>
      <point x="297" y="364" type="qcurve" smooth="yes"/>
      <point x="238" y="364"/>
      <point x="219" y="286" type="qcurve" smooth="yes"/>
      <point x="216" y="272"/>
      <point x="208" y="238"/>
      <point x="202" y="208"/>
      <point x="198" y="186"/>
      <point x="198" y="182" type="qcurve" smooth="yes"/>
      <point x="198" y="173"/>
      <point x="210" y="162"/>
      <point x="227" y="158"/>
      <point x="243" y="157"/>
      <point x="247" y="157" type="qcurve" smooth="yes"/>
      <point x="260" y="157"/>
      <point x="326" y="197" type="line" smooth="yes"/>
      <point x="337" y="204"/>
      <point x="364" y="198"/>
      <point x="385" y="179"/>
      <point x="393" y="149"/>
      <point x="386" y="133" type="qcurve" smooth="yes"/>
      <point x="384" y="128"/>
      <point x="351" y="85"/>
      <point x="297" y="38"/>
      <point x="222" y="0"/>
      <point x="178" y="0" type="qcurve" smooth="yes"/>
      <point x="132" y="0"/>
      <point x="72" y="29"/>
      <point x="37" y="67"/>
      <point x="24" y="104"/>
      <point x="25" y="111" type="qcurve" smooth="yes"/>
      <point x="48" y="270" type="line" smooth="yes"/>
      <point x="53" y="306"/>
      <point x="87" y="371"/>
      <point x="139" y="424"/>
      <point x="203" y="460"/>
      <point x="238" y="466" type="qcurve" smooth="no"/>
    </contour>
  </outline>
</glyph>
<glyph name="idieresis" format="1">
  <advance width="409"/>
  <unicode hex="00ef"/>
  <outline>
    <contour>
      <point x="255" y="469" type="line" smooth="no"/>
      <point x="229" y="469" type="line" smooth="no"/>
      <point x="249" y="594" type="line" smooth="no"/>
      <point x="368" y="594" type="line" smooth="no"/>
      <point x="350" y="469" type="line" smooth="no"/>
      <point x="290" y="469" type="line" smooth="no"/>
      <point x="286" y="445" type="line" smooth="no"/>
      <point x="298" y="445" type="line" smooth="no"/>
      <point x="220" y="0" type="line" smooth="no"/>
      <point x="59" y="0" type="line" smooth="no"/>
      <point x="134" y="446" type="line" smooth="no"/>
      <point x="146" y="446" type="line" smooth="no"/>
      <point x="150" y="469" type="line" smooth="no"/>
      <point x="89" y="469" type="line" smooth="no"/>
      <point x="108" y="594" type="line" smooth="no"/>
      <point x="233" y="594" type="line" smooth="no"/>
      <point x="214" y="469" type="line" smooth="no"/>
      <point x="185" y="468" type="line" smooth="no"/>
      <point x="183" y="445" type="line" smooth="no"/>
      <point x="252" y="445" type="line" smooth="no"/>
    </contour>
  </outline>
</glyph>
<glyph name="eth" format="1">
  <advance width="696"/>
  <unicode hex="00f0"/>
  <outline>
    <contour>
      <point x="340" y="463" type="line" smooth="no"/>
      <point x="352" y="464"/>
      <point x="409" y="451"/>
      <point x="436" y="437" type="qcurve" smooth="no"/>
      <point x="455" y="514" type="line" smooth="no"/>
      <point x="366" y="509" type="line" smooth="no"/>
      <point x="387" y="597" type="line" smooth="no"/>
      <point x="475" y="603" type="line" smooth="no"/>
      <point x="476" y="621"/>
      <point x="482" y="655"/>
      <point x="466" y="681"/>
      <point x="414" y="697"/>
      <point x="359" y="697" type="qcurve" smooth="yes"/>
      <point x="355" y="697"/>
      <point x="314" y="693"/>
      <point x="296" y="691"/>
      <point x="294" y="690" type="qcurve" smooth="no"/>
      <point x="310" y="747" type="line" smooth="no"/>
      <point x="345" y="755"/>
      <point x="419" y="766"/>
      <point x="457" y="766" type="qcurve" smooth="yes"/>
      <point x="526" y="766"/>
      <point x="588" y="740"/>
      <point x="604" y="696"/>
      <point x="591" y="640"/>
      <point x="585" y="609" type="qcurve" smooth="no"/>
      <point x="658" y="613" type="line" smooth="no"/>
      <point x="648" y="521" type="line" smooth="no"/>
      <point x="562" y="517" type="line" smooth="no"/>
      <point x="543" y="429"/>
      <point x="476" y="171" type="line" smooth="yes"/>
      <point x="468" y="142"/>
      <point x="421" y="82"/>
      <point x="346" y="32"/>
      <point x="245" y="0"/>
      <point x="184" y="0" type="qcurve" smooth="yes"/>
      <point x="135" y="0"/>
      <point x="79" y="25"/>
      <point x="50" y="61"/>
      <point x="42" y="99"/>
      <point x="42" y="113" type="qcurve" smooth="no"/>
      <point x="41" y="126"/>
      <point x="56" y="217" type="line" smooth="yes"/>
      <point x="62" y="253"/>
      <point x="71" y="295" type="qcurve" smooth="yes"/>
      <point x="79" y="331"/>
      <point x="131" y="387"/>
      <point x="199" y="427"/>
      <point x="274" y="453"/>
      <point x="305" y="459" type="qcurve" smooth="no"/>
      <point x="283" y="332" type="line" smooth="no"/>
      <point x="271" y="322"/>
      <point x="257" y="299"/>
      <point x="248" y="276"/>
      <point x="244" y="257"/>
      <point x="243" y="251" type="qcurve" smooth="yes"/>
      <point x="239" y="230"/>
      <point x="236" y="212" type="qcurve" smooth="yes"/>
      <point x="233" y="197"/>
      <point x="229" y="169"/>
      <point x="228" y="165" type="qcurve" smooth="yes"/>
      <point x="228" y="162"/>
      <point x="230" y="151"/>
      <point x="239" y="142"/>
      <point x="257" y="135"/>
      <point x="274" y="135" type="qcurve" smooth="yes"/>
      <point x="287" y="135"/>
      <point x="318" y="145"/>
      <point x="346" y="163"/>
      <point x="367" y="187"/>
      <point x="371" y="201" type="qcurve" smooth="yes"/>
      <point x="375" y="214"/>
      <point x="389" y="276"/>
      <point x="393" y="302"/>
      <point x="394" y="308" type="qcurve" smooth="yes"/>
      <point x="395" y="316"/>
      <point x="393" y="333"/>
      <point x="385" y="346"/>
      <point x="367" y="354"/>
      <point x="351" y="354" type="qcurve" smooth="yes"/>
      <point x="335" y="353"/>
      <point x="315" y="348"/>
      <point x="308" y="344" type="qcurve" smooth="yes"/>
      <point x="300" y="340"/>
      <point x="295" y="335" type="qcurve" smooth="no"/>
      <point x="318" y="460" type="line" smooth="no"/>
      <point x="340" y="463" type="line" smooth="no"/>
    </contour>
  </outline>
</glyph>
<glyph name="ograve" format="1">
  <advance width="500"/>
  <unicode hex="00f2"/>
  <outline>
    <contour>
      <point x="376" y="464" type="line" smooth="no"/>
      <point x="394" y="459"/>
      <point x="431" y="443"/>
      <point x="462" y="418"/>
      <point x="482" y="383"/>
      <point x="482" y="361" type="qcurve" smooth="yes"/>
      <point x="482" y="350"/>
      <point x="475" y="304"/>
      <point x="466" y="251"/>
      <point x="456" y="201"/>
      <point x="453" y="188" type="qcurve" smooth="yes"/>
      <point x="446" y="159"/>
      <point x="405" y="93"/>
      <point x="335" y="36"/>
      <point x="235" y="-1"/>
      <point x="169" y="-1" type="qcurve" smooth="yes"/>
      <point x="121" y="-1"/>
      <point x="64" y="25"/>
      <point x="36" y="62"/>
      <point x="27" y="101"/>
      <point x="27" y="114" type="qcurve" smooth="yes"/>
      <point x="26" y="128"/>
      <point x="41" y="222" type="line" smooth="yes"/>
      <point x="47" y="260"/>
      <point x="56" y="304" type="qcurve" smooth="no"/>
      <point x="71" y="341"/>
      <point x="124" y="399"/>
      <point x="188" y="441"/>
      <point x="258" y="465"/>
      <point x="290" y="468" type="qcurve" smooth="no"/>
      <point x="268" y="342" type="line" smooth="no"/>
      <point x="263" y="338"/>
      <point x="254" y="328"/>
      <point x="250" y="320" type="qcurve" smooth="yes"/>
      <point x="242" y="305"/>
      <point x="230" y="263"/>
      <point x="221" y="221"/>
      <point x="215" y="185"/>
      <point x="214" y="175" type="qcurve" smooth="yes"/>
      <point x="213" y="171"/>
      <point x="214" y="161"/>
      <point x="222" y="152"/>
      <point x="240" y="145"/>
      <point x="257" y="145" type="qcurve" smooth="yes"/>
      <point x="300" y="145"/>
      <point x="342" y="177"/>
      <point x="347" y="189" type="qcurve" smooth="yes"/>
      <point x="349" y="195"/>
      <point x="358" y="230"/>
      <point x="375" y="308"/>
      <point x="377" y="316" type="qcurve" smooth="yes"/>
      <point x="380" y="332"/>
      <point x="363" y="363"/>
      <point x="337" y="363" type="qcurve" smooth="yes"/>
      <point x="324" y="363"/>
      <point x="303" y="358"/>
      <point x="295" y="355" type="qcurve" smooth="yes"/>
      <point x="286" y="351"/>
      <point x="279" y="347" type="qcurve" smooth="no"/>
      <point x="320" y="594" type="line" smooth="no"/>
      <point x="430" y="594" type="line" smooth="no"/>
      <point x="376" y="464" type="line" smooth="no"/>
    </contour>
  </outline>
</glyph>
<glyph name="oacute" format="1">
  <advance width="500"/>
  <unicode hex="00f3"/>
  <outline>
    <contour>
      <point x="225" y="594" type="line" smooth="no"/>
      <point x="360" y="594" type="line" smooth="no"/>
      <point x="395" y="458" type="line" smooth="no"/>
      <point x="427" y="446"/>
      <point x="481" y="400"/>
      <point x="482" y="361" type="qcurve" smooth="yes"/>
      <point x="482" y="350"/>
      <point x="475" y="304"/>
      <point x="466" y="251"/>
      <point x="456" y="201"/>
      <point x="453" y="188" type="qcurve" smooth="yes"/>
      <point x="446" y="159"/>
      <point x="405" y="93"/>
      <point x="335" y="36"/>
      <point x="235" y="-1"/>
      <point x="169" y="-1" type="qcurve" smooth="yes"/>
      <point x="121" y="-1"/>
      <point x="64" y="25"/>
      <point x="36" y="62"/>
      <point x="27" y="101"/>
      <point x="27" y="114" type="qcurve" smooth="yes"/>
      <point x="26" y="128"/>
      <point x="41" y="222" type="line" smooth="yes"/>
      <point x="47" y="260"/>
      <point x="56" y="304" type="qcurve" smooth="no"/>
      <point x="71" y="341"/>
      <point x="123" y="396"/>
      <point x="187" y="436"/>
      <point x="256" y="462"/>
      <point x="287" y="468" type="qcurve" smooth="no"/>
      <point x="268" y="342" type="line" smooth="no"/>
      <point x="263" y="338"/>
      <point x="254" y="328"/>
      <point x="250" y="320" type="qcurve" smooth="yes"/>
      <point x="242" y="305"/>
      <point x="230" y="263"/>
      <point x="221" y="221"/>
      <point x="215" y="185"/>
      <point x="214" y="175" type="qcurve" smooth="yes"/>
      <point x="213" y="171"/>
      <point x="214" y="161"/>
      <point x="222" y="152"/>
      <point x="240" y="145"/>
      <point x="257" y="145" type="qcurve" smooth="yes"/>
      <point x="300" y="145"/>
      <point x="342" y="177"/>
      <point x="347" y="189" type="qcurve" smooth="yes"/>
      <point x="349" y="195"/>
      <point x="358" y="230"/>
      <point x="375" y="308"/>
      <point x="377" y="316" type="qcurve" smooth="yes"/>
      <point x="380" y="332"/>
      <point x="363" y="363"/>
      <point x="337" y="363" type="qcurve" smooth="yes"/>
      <point x="324" y="363"/>
      <point x="303" y="358"/>
      <point x="295" y="355" type="qcurve" smooth="yes"/>
      <point x="279" y="348" type="line" smooth="no"/>
      <point x="297" y="469" type="line" smooth="no"/>
    </contour>
  </outline>
</glyph>
<glyph name="ocircumflex" format="1">
  <advance width="500"/>
  <unicode hex="00f4"/>
  <outline>
    <contour>
      <point x="357" y="623" type="line" smooth="no"/>
      <point x="463" y="577" type="line" smooth="no"/>
      <point x="452" y="482" type="line" smooth="no"/>
      <point x="344" y="517" type="line" smooth="no"/>
      <point x="290" y="468" type="line" smooth="no"/>
      <point x="269" y="343" type="line" smooth="no"/>
      <point x="264" y="339"/>
      <point x="254" y="328"/>
      <point x="250" y="320" type="qcurve" smooth="yes"/>
      <point x="242" y="305"/>
      <point x="230" y="263"/>
      <point x="221" y="221"/>
      <point x="215" y="185"/>
      <point x="214" y="175" type="qcurve" smooth="yes"/>
      <point x="213" y="171"/>
      <point x="214" y="161"/>
      <point x="222" y="152"/>
      <point x="240" y="145"/>
      <point x="257" y="145" type="qcurve" smooth="yes"/>
      <point x="300" y="145"/>
      <point x="342" y="177"/>
      <point x="347" y="189" type="qcurve" smooth="yes"/>
      <point x="349" y="195"/>
      <point x="358" y="230"/>
      <point x="375" y="308"/>
      <point x="377" y="316" type="qcurve" smooth="yes"/>
      <point x="380" y="332"/>
      <point x="363" y="363"/>
      <point x="337" y="363" type="qcurve" smooth="yes"/>
      <point x="324" y="363"/>
      <point x="304" y="358"/>
      <point x="296" y="355" type="qcurve" smooth="yes"/>
      <point x="287" y="351"/>
      <point x="280" y="347" type="qcurve" smooth="no"/>
      <point x="300" y="468" type="line" smooth="no"/>
      <point x="326" y="472" type="line" smooth="yes"/>
      <point x="337" y="473"/>
      <point x="388" y="464"/>
      <point x="441" y="438"/>
      <point x="481" y="394"/>
      <point x="482" y="361" type="qcurve" smooth="yes"/>
      <point x="482" y="350"/>
      <point x="475" y="304"/>
      <point x="466" y="251"/>
      <point x="456" y="201"/>
      <point x="453" y="188" type="qcurve" smooth="yes"/>
      <point x="446" y="159"/>
      <point x="405" y="93"/>
      <point x="335" y="36"/>
      <point x="235" y="-1"/>
      <point x="169" y="-1" type="qcurve" smooth="yes"/>
      <point x="121" y="-1"/>
      <point x="64" y="25"/>
      <point x="36" y="62"/>
      <point x="27" y="101"/>
      <point x="27" y="114" type="qcurve" smooth="yes"/>
      <point x="26" y="128"/>
      <point x="41" y="222" type="line" smooth="yes"/>
      <point x="47" y="260"/>
      <point x="56" y="304" type="qcurve" smooth="no"/>
      <point x="77" y="357"/>
      <point x="159" y="425"/>
      <point x="207" y="445" type="qcurve" smooth="no"/>
      <point x="218" y="521" type="line" smooth="no"/>
    </contour>
  </outline>
</glyph>
<glyph name="otilde" format="1">
  <advance width="504"/>
  <unicode hex="00f5"/>
  <outline>
    <contour>
      <point x="220" y="556" type="line" smooth="no"/>
      <point x="242" y="569"/>
      <point x="303" y="597"/>
      <point x="329" y="602" type="qcurve" smooth="yes"/>
      <point x="355" y="607"/>
      <point x="411" y="608"/>
      <point x="430" y="614" type="qcurve" smooth="yes"/>
      <point x="440" y="617"/>
      <point x="471" y="632" type="line" smooth="yes"/>
      <point x="482" y="637"/>
      <point x="493" y="644" type="qcurve" smooth="no"/>
      <point x="474" y="525" type="line" smooth="no"/>
      <point x="466" y="519"/>
      <point x="457" y="515" type="qcurve" smooth="yes"/>
      <point x="430" y="502"/>
      <point x="419" y="500" type="qcurve" smooth="yes"/>
      <point x="408" y="497"/>
      <point x="344" y="491"/>
      <point x="317" y="489"/>
      <point x="313" y="488" type="qcurve" smooth="yes"/>
      <point x="307" y="486"/>
      <point x="294" y="476" type="line" smooth="yes"/>
      <point x="290" y="472"/>
      <point x="287" y="468" type="qcurve" smooth="no"/>
      <point x="266" y="342" type="line" smooth="no"/>
      <point x="261" y="338"/>
      <point x="254" y="328"/>
      <point x="250" y="320" type="qcurve" smooth="yes"/>
      <point x="242" y="305"/>
      <point x="230" y="263"/>
      <point x="221" y="221"/>
      <point x="215" y="185"/>
      <point x="214" y="175" type="qcurve" smooth="yes"/>
      <point x="213" y="171"/>
      <point x="214" y="161"/>
      <point x="222" y="152"/>
      <point x="240" y="145"/>
      <point x="257" y="145" type="qcurve" smooth="yes"/>
      <point x="300" y="145"/>
      <point x="342" y="177"/>
      <point x="347" y="189" type="qcurve" smooth="yes"/>
      <point x="349" y="195"/>
      <point x="358" y="230"/>
      <point x="375" y="308"/>
      <point x="377" y="316" type="qcurve" smooth="yes"/>
      <point x="380" y="332"/>
      <point x="363" y="363"/>
      <point x="337" y="363" type="qcurve" smooth="yes"/>
      <point x="320" y="363"/>
      <point x="297" y="358"/>
      <point x="290" y="355" type="qcurve" smooth="yes"/>
      <point x="281" y="351"/>
      <point x="277" y="347" type="qcurve" smooth="no"/>
      <point x="297" y="469" type="line" smooth="no"/>
      <point x="326" y="472" type="line" smooth="yes"/>
      <point x="337" y="473"/>
      <point x="388" y="463"/>
      <point x="441" y="438"/>
      <point x="481" y="394"/>
      <point x="482" y="361" type="qcurve" smooth="yes"/>
      <point x="482" y="350"/>
      <point x="475" y="304"/>
      <point x="466" y="251"/>
      <point x="456" y="201"/>
      <point x="453" y="188" type="qcurve" smooth="yes"/>
      <point x="446" y="159"/>
      <point x="405" y="93"/>
      <point x="335" y="36"/>
      <point x="235" y="-1"/>
      <point x="169" y="-1" type="qcurve" smooth="yes"/>
      <point x="121" y="-1"/>
      <point x="64" y="25"/>
      <point x="36" y="62"/>
      <point x="27" y="101"/>
      <point x="27" y="114" type="qcurve" smooth="yes"/>
      <point x="26" y="128"/>
      <point x="41" y="222" type="line" smooth="yes"/>
      <point x="47" y="260"/>
      <point x="56" y="304" type="qcurve" smooth="no"/>
      <point x="76" y="355"/>
      <point x="158" y="422"/>
      <point x="204" y="442" type="qcurve" smooth="no"/>
    </contour>
  </outline>
</glyph>
<glyph name="ugrave" format="1">
  <advance width="608"/>
  <unicode hex="00f9"/>
  <outline>
    <contour>
      <point x="166" y="594" type="line" smooth="no"/>
      <point x="312" y="594" type="line" smooth="no"/>
      <point x="343" y="431" type="line" smooth="no"/>
      <point x="276" y="431" type="line" smooth="no"/>
      <point x="270" y="402"/>
      <point x="226" y="170"/>
      <point x="225" y="162" type="qcurve" smooth="yes"/>
      <point x="223" y="148"/>
      <point x="230" y="130"/>
      <point x="246" y="120"/>
      <point x="269" y="116"/>
      <point x="281" y="116" type="qcurve" smooth="yes"/>
      <point x="289" y="116"/>
      <point x="313" y="126"/>
      <point x="337" y="142"/>
      <point x="355" y="164"/>
      <point x="358" y="175" type="qcurve" smooth="yes"/>
      <point x="359" y="182"/>
      <point x="366" y="215"/>
      <point x="389" y="337" type="line" smooth="yes"/>
      <point x="400" y="398"/>
      <point x="415" y="469" type="qcurve" smooth="no"/>
      <point x="582" y="469" type="line" smooth="no"/>
      <point x="507" y="0" type="line" smooth="no"/>
      <point x="331" y="0" type="line" smooth="no"/>
      <point x="339" y="47" type="line" smooth="no"/>
      <point x="288" y="24"/>
      <point x="247" y="9"/>
      <point x="199" y="-1"/>
      <point x="170" y="-1" type="qcurve" smooth="yes"/>
      <point x="126" y="-1"/>
      <point x="73" y="24"/>
      <point x="46" y="65"/>
      <point x="41" y="115"/>
      <point x="45" y="140" type="qcurve" smooth="yes"/>
      <point x="46" y="144"/>
      <point x="51" y="177"/>
      <point x="73" y="313" type="line" smooth="yes"/>
      <point x="84" y="383"/>
      <point x="99" y="469" type="qcurve" smooth="no"/>
      <point x="230" y="469" type="line" smooth="no"/>
    </contour>
  </outline>
</glyph>
<glyph name="udieresis" format="1">
  <advance width="608"/>
  <unicode hex="00fc"/>
  <outline>
    <contour>
      <point x="446" y="594" type="line" smooth="no"/>
      <point x="618" y="594" type="line" smooth="no"/>
      <point x="599" y="470" type="line" smooth="no"/>
      <point x="541" y="469" type="line" smooth="no"/>
      <point x="535" y="445" type="line" smooth="no"/>
      <point x="577" y="445" type="line" smooth="no"/>
      <point x="507" y="0" type="line" smooth="no"/>
      <point x="331" y="0" type="line" smooth="no"/>
      <point x="339" y="47" type="line" smooth="no"/>
      <point x="288" y="24"/>
      <point x="247" y="9"/>
      <point x="199" y="-1"/>
      <point x="170" y="-1" type="qcurve" smooth="yes"/>
      <point x="126" y="-1"/>
      <point x="75" y="24"/>
      <point x="50" y="65"/>
      <point x="46" y="115"/>
      <point x="50" y="140" type="qcurve" smooth="yes"/>
      <point x="51" y="144"/>
      <point x="55" y="175"/>
      <point x="70" y="273"/>
      <point x="75" y="301" type="qcurve" smooth="yes"/>
      <point x="98" y="446" type="line" smooth="no"/>
      <point x="176" y="446" type="line" smooth="no"/>
      <point x="180" y="469" type="line" smooth="no"/>
      <point x="117" y="469" type="line" smooth="no"/>
      <point x="137" y="594" type="line" smooth="no"/>
      <point x="322" y="594" type="line" smooth="no"/>
      <point x="303" y="470" type="line" smooth="no"/>
      <point x="238" y="469" type="line" smooth="no"/>
      <point x="233" y="446" type="line" smooth="no"/>
      <point x="277" y="446" type="line" smooth="no"/>
      <point x="234" y="216"/>
      <point x="226" y="169"/>
      <point x="225" y="162" type="qcurve" smooth="yes"/>
      <point x="223" y="148"/>
      <point x="230" y="130"/>
      <point x="246" y="120"/>
      <point x="269" y="116"/>
      <point x="281" y="116" type="qcurve" smooth="yes"/>
      <point x="289" y="116"/>
      <point x="313" y="126"/>
      <point x="337" y="142"/>
      <point x="355" y="164"/>
      <point x="358" y="175" type="qcurve" smooth="yes"/>
      <point x="359" y="182"/>
      <point x="366" y="213"/>
      <point x="373" y="254"/>
      <point x="387" y="325" type="line" smooth="yes"/>
      <point x="410" y="445" type="line" smooth="no"/>
      <point x="478" y="445" type="line" smooth="no"/>
      <point x="483" y="469" type="line" smooth="no"/>
      <point x="426" y="469" type="line" smooth="no"/>
    </contour>
  </outline>
</glyph>
<glyph name="thorn" format="1">
  <advance width="597"/>
  <unicode hex="00fe"/>
  <outline>
    <contour>
      <point x="184" y="-103" type="line" smooth="no"/>
      <point x="36" y="-103" type="line" smooth="no"/>
      <point x="146" y="563" type="line" smooth="no"/>
      <point x="296" y="564" type="line" smooth="no"/>
      <point x="221" y="121" type="line" smooth="no"/>
      <point x="222" y="119"/>
      <point x="231" y="109"/>
      <point x="246" y="99"/>
      <point x="267" y="90"/>
      <point x="280" y="90" type="qcurve" smooth="yes"/>
      <point x="300" y="90"/>
      <point x="328" y="102"/>
      <point x="347" y="119"/>
      <point x="357" y="136"/>
      <point x="360" y="142" type="qcurve" smooth="yes"/>
      <point x="363" y="147"/>
      <point x="369" y="175"/>
      <point x="380" y="234"/>
      <point x="381" y="239" type="qcurve" smooth="yes"/>
      <point x="383" y="248"/>
      <point x="384" y="285"/>
      <point x="378" y="297" type="qcurve" smooth="no"/>
      <point x="373" y="310"/>
      <point x="349" y="317"/>
      <point x="329" y="315" type="qcurve" smooth="yes"/>
      <point x="319" y="314"/>
      <point x="296" y="304"/>
      <point x="285" y="297" type="qcurve" smooth="yes"/>
      <point x="273" y="289"/>
      <point x="261" y="279" type="qcurve" smooth="no"/>
      <point x="281" y="406" type="line" smooth="no"/>
      <point x="300" y="421"/>
      <point x="322" y="433" type="qcurve" smooth="yes"/>
      <point x="341" y="444"/>
      <point x="392" y="462"/>
      <point x="422" y="464" type="qcurve" smooth="yes"/>
      <point x="440" y="465"/>
      <point x="492" y="448"/>
      <point x="539" y="415"/>
      <point x="572" y="366"/>
      <point x="572" y="335" type="qcurve" smooth="yes"/>
      <point x="572" y="278"/>
      <point x="549" y="179"/>
      <point x="539" y="143" type="qcurve" smooth="yes"/>
      <point x="536" y="132"/>
      <point x="508" y="84"/>
      <point x="458" y="34"/>
      <point x="386" y="-3"/>
      <point x="338" y="-3" type="qcurve" smooth="yes"/>
      <point x="281" y="-3"/>
      <point x="220" y="20"/>
      <point x="206" y="29" type="qcurve" smooth="no"/>
    </contour>
  </outline>
</glyph>
<glyph name="dotlessi" format="1">
  <advance width="341"/>
  <unicode hex="0131"/>
  <outline>
    <contour>
      <point x="231" y="304" type="line" smooth="no"/>
      <point x="181" y="0" type="line" smooth="no"/>
      <point x="39" y="0" type="line" smooth="no"/>
      <point x="91" y="304" type="line" smooth="no"/>
    </contour>
  </outline>
</glyph>
<glyph name="IJ" format="1">
  <advance width="641"/>
  <unicode hex="0132"/>
  <outline>
    <contour>
      <point x="45" y="200" type="line" smooth="no"/>
      <point x="120" y="645" type="line" smooth="no"/>
      <point x="181" y="646" type="line" smooth="no"/>
      <point x="185" y="666" type="line" smooth="no"/>
      <point x="124" y="666" type="line" smooth="no"/>
      <point x="144" y="800" type="line" smooth="no"/>
      <point x="308" y="800" type="line" smooth="no"/>
      <point x="289" y="666" type="line" smooth="no"/>
      <point x="228" y="666" type="line" smooth="no"/>
      <point x="225" y="645" type="line" smooth="no"/>
      <point x="284" y="645" type="line" smooth="no"/>
      <point x="206" y="200" type="line" smooth="no"/>
      <point x="140" y="200" type="line" smooth="no"/>
      <point x="133" y="168" type="line" smooth="no"/>
      <point x="198" y="168" type="line" smooth="no"/>
      <point x="191" y="127"/>
      <point x="217" y="76"/>
      <point x="240" y="76" type="qcurve" smooth="yes"/>
      <point x="251" y="76"/>
      <point x="278" y="86"/>
      <point x="305" y="117"/>
      <point x="329" y="176"/>
      <point x="337" y="224" type="qcurve" smooth="yes"/>
      <point x="340" y="245"/>
      <point x="350" y="304"/>
      <point x="360" y="371"/>
      <point x="372" y="443"/>
      <point x="377" y="477" type="qcurve" smooth="yes"/>
      <point x="403" y="646" type="line" smooth="no"/>
      <point x="472" y="646" type="line" smooth="no"/>
      <point x="476" y="665" type="line" smooth="no"/>
      <point x="407" y="665" type="line" smooth="no"/>
      <point x="429" y="800" type="line" smooth="no"/>
      <point x="607" y="800" type="line" smooth="no"/>
      <point x="589" y="666" type="line" smooth="no"/>
      <point x="564" y="666" type="line" smooth="yes"/>
      <point x="553" y="666"/>
      <point x="531" y="665"/>
      <point x="523" y="666" type="qcurve" smooth="no"/>
      <point x="519" y="645" type="line" smooth="no"/>
      <point x="583" y="645" type="line" smooth="no"/>
      <point x="515" y="236" type="line" smooth="yes"/>
      <point x="503" y="166"/>
      <point x="453" y="75"/>
      <point x="378" y="21"/>
      <point x="278" y="0"/>
      <point x="217" y="0" type="qcurve" smooth="yes"/>
      <point x="178" y="0"/>
      <point x="107" y="13"/>
      <point x="55" y="50"/>
      <point x="30" y="115"/>
      <point x="38" y="168" type="qcurve" smooth="no"/>
      <point x="88" y="168" type="line" smooth="no"/>
      <point x="95" y="200" type="line" smooth="no"/>
    </contour>
  </outline>
</glyph>
<glyph name="ij" format="1">
  <advance width="641"/>
  <unicode hex="0133"/>
  <outline>
    <contour>
      <point x="32" y="0" type="line" smooth="no"/>
      <point x="107" y="446" type="line" smooth="no"/>
      <point x="168" y="446" type="line" smooth="no"/>
      <point x="172" y="469" type="line" smooth="no"/>
      <point x="111" y="469" type="line" smooth="no"/>
      <point x="131" y="594" type="line" smooth="no"/>
      <point x="295" y="594" type="line" smooth="no"/>
      <point x="276" y="469" type="line" smooth="no"/>
      <point x="215" y="469" type="line" smooth="no"/>
      <point x="212" y="445" type="line" smooth="no"/>
      <point x="271" y="445" type="line" smooth="no"/>
      <point x="193" y="0" type="line" smooth="no"/>
      <point x="127" y="0" type="line" smooth="no"/>
      <point x="120" y="-32" type="line" smooth="no"/>
      <point x="185" y="-32" type="line" smooth="no"/>
      <point x="178" y="-73"/>
      <point x="204" y="-124"/>
      <point x="227" y="-124" type="qcurve" smooth="yes"/>
      <point x="238" y="-124"/>
      <point x="265" y="-114"/>
      <point x="292" y="-83"/>
      <point x="316" y="-24"/>
      <point x="324" y="24" type="qcurve" smooth="yes"/>
      <point x="327" y="45"/>
      <point x="337" y="104"/>
      <point x="347" y="171"/>
      <point x="359" y="243"/>
      <point x="364" y="277" type="qcurve" smooth="yes"/>
      <point x="390" y="446" type="line" smooth="no"/>
      <point x="459" y="446" type="line" smooth="no"/>
      <point x="463" y="468" type="line" smooth="no"/>
      <point x="394" y="468" type="line" smooth="no"/>
      <point x="416" y="594" type="line" smooth="no"/>
      <point x="594" y="594" type="line" smooth="no"/>
      <point x="576" y="469" type="line" smooth="no"/>
      <point x="551" y="469" type="line" smooth="yes"/>
      <point x="540" y="469"/>
      <point x="518" y="468"/>
      <point x="510" y="469" type="qcurve" smooth="no"/>
      <point x="506" y="445" type="line" smooth="no"/>
      <point x="570" y="445" type="line" smooth="no"/>
      <point x="502" y="36" type="line" smooth="yes"/>
      <point x="490" y="-34"/>
      <point x="440" y="-125"/>
      <point x="365" y="-179"/>
      <point x="265" y="-200"/>
      <point x="204" y="-200" type="qcurve" smooth="yes"/>
      <point x="165" y="-200"/>
      <point x="94" y="-187"/>
      <point x="42" y="-150"/>
      <point x="17" y="-85"/>
      <point x="25" y="-32" type="qcurve" smooth="no"/>
      <point x="75" y="-32" type="line" smooth="no"/>
      <point x="82" y="0" type="line" smooth="no"/>
    </contour>
  </outline>
</glyph>
<glyph name="Lslash" format="1">
  <advance width="446"/>
  <unicode hex="0141"/>
  <outline>
    <contour>
      <point x="129" y="472" type="line" smooth="no"/>
      <point x="161" y="666" type="line" smooth="no"/>
      <point x="337" y="666" type="line" smooth="no"/>
      <point x="316" y="533" type="line" smooth="no"/>
      <point x="390" y="557" type="line" smooth="no"/>
      <point x="390" y="454" type="line" smooth="no"/>
      <point x="299" y="426" type="line" smooth="no"/>
      <point x="256" y="161" type="line" smooth="no"/>
      <point x="401" y="161" type="line" smooth="no"/>
      <point x="369" y="0" type="line" smooth="no"/>
      <point x="50" y="0" type="line" smooth="no"/>
      <point x="112" y="370" type="line" smooth="no"/>
      <point x="36" y="347" type="line" smooth="no"/>
      <point x="36" y="442" type="line" smooth="no"/>
    </contour>
  </outline>
</glyph>
<glyph name="OE" format="1">
  <advance width="672"/>
  <unicode hex="0152"/>
  <outline>
    <contour>
      <point x="647" y="666" type="line" smooth="no"/>
      <point x="626" y="526" type="line" smooth="no"/>
      <point x="292" y="526" type="line" smooth="yes"/>
      <point x="276" y="526"/>
      <point x="255" y="510"/>
      <point x="241" y="484"/>
      <point x="233" y="450"/>
      <point x="230" y="432" type="qcurve" smooth="yes"/>
      <point x="210" y="313" type="line" smooth="yes"/>
      <point x="193" y="212"/>
      <point x="190" y="189"/>
      <point x="190" y="188" type="qcurve" smooth="yes"/>
      <point x="190" y="185"/>
      <point x="191" y="175"/>
      <point x="196" y="165"/>
      <point x="209" y="158"/>
      <point x="221" y="158" type="qcurve" smooth="yes"/>
      <point x="239" y="158"/>
      <point x="260" y="169"/>
      <point x="271" y="185"/>
      <point x="275" y="204"/>
      <point x="276" y="212" type="qcurve" smooth="yes"/>
      <point x="332" y="518" type="line" smooth="no"/>
      <point x="484" y="518" type="line" smooth="no"/>
      <point x="466" y="401" type="line" smooth="no"/>
      <point x="606" y="401" type="line" smooth="no"/>
      <point x="584" y="267" type="line" smooth="no"/>
      <point x="449" y="266" type="line" smooth="no"/>
      <point x="430" y="148" type="line" smooth="no"/>
      <point x="564" y="148" type="line" smooth="no"/>
      <point x="536" y="0" type="line" smooth="no"/>
      <point x="193" y="0" type="line" smooth="yes"/>
      <point x="138" y="0"/>
      <point x="76" y="33"/>
      <point x="45" y="78"/>
      <point x="38" y="127"/>
      <point x="38" y="143" type="qcurve" smooth="yes"/>
      <point x="38" y="159"/>
      <point x="48" y="239"/>
      <point x="63" y="342"/>
      <point x="83" y="455"/>
      <point x="93" y="503" type="qcurve" smooth="yes"/>
      <point x="103" y="551"/>
      <point x="158" y="614"/>
      <point x="223" y="651"/>
      <point x="288" y="666"/>
      <point x="310" y="666" type="qcurve" smooth="yes"/>
    </contour>
  </outline>
</glyph>
<glyph name="oe" format="1">
  <advance width="757"/>
  <unicode hex="0153"/>
  <outline>
    <contour>
      <point x="576" y="470" type="qcurve" smooth="yes"/>
      <point x="603" y="470"/>
      <point x="656" y="458"/>
      <point x="699" y="432"/>
      <point x="728" y="390"/>
      <point x="731" y="361" type="qcurve" smooth="yes"/>
      <point x="735" y="321"/>
      <point x="708" y="271"/>
      <point x="665" y="243"/>
      <point x="619" y="231"/>
      <point x="605" y="230" type="qcurve" smooth="yes"/>
      <point x="597" y="229"/>
      <point x="566" y="229"/>
      <point x="552" y="230" type="qcurve" smooth="no"/>
      <point x="534" y="230"/>
      <point x="516" y="231" type="qcurve" smooth="no"/>
      <point x="530" y="287" type="line" smooth="no"/>
      <point x="537" y="288"/>
      <point x="545" y="289" type="qcurve" smooth="yes"/>
      <point x="552" y="290"/>
      <point x="568" y="292"/>
      <point x="578" y="294" type="qcurve" smooth="no"/>
      <point x="610" y="297"/>
      <point x="631" y="328"/>
      <point x="629" y="339" type="qcurve" smooth="yes"/>
      <point x="629" y="340"/>
      <point x="627" y="348"/>
      <point x="621" y="357"/>
      <point x="610" y="364"/>
      <point x="600" y="364" type="qcurve" smooth="yes"/>
      <point x="541" y="364"/>
      <point x="522" y="286" type="qcurve" smooth="yes"/>
      <point x="519" y="272"/>
      <point x="511" y="238"/>
      <point x="505" y="208"/>
      <point x="501" y="186"/>
      <point x="501" y="182" type="qcurve" smooth="yes"/>
      <point x="501" y="173"/>
      <point x="513" y="162"/>
      <point x="529" y="158"/>
      <point x="545" y="157"/>
      <point x="549" y="157" type="qcurve" smooth="yes"/>
      <point x="563" y="157"/>
      <point x="629" y="197" type="line" smooth="yes"/>
      <point x="640" y="204"/>
      <point x="667" y="198"/>
      <point x="688" y="179"/>
      <point x="696" y="149"/>
      <point x="689" y="133" type="qcurve" smooth="yes"/>
      <point x="687" y="128"/>
      <point x="654" y="85"/>
      <point x="600" y="38"/>
      <point x="525" y="0"/>
      <point x="481" y="0" type="qcurve" smooth="yes"/>
      <point x="429" y="0"/>
      <point x="367" y="34"/>
      <point x="350" y="55" type="qcurve" smooth="no"/>
      <point x="315" y="30"/>
      <point x="221" y="-1"/>
      <point x="161" y="-1" type="qcurve" smooth="yes"/>
      <point x="113" y="-1"/>
      <point x="56" y="25"/>
      <point x="27" y="62"/>
      <point x="19" y="101"/>
      <point x="19" y="114" type="qcurve" smooth="yes"/>
      <point x="18" y="128"/>
      <point x="33" y="222" type="line" smooth="yes"/>
      <point x="39" y="260"/>
      <point x="48" y="304" type="qcurve" smooth="no"/>
      <point x="63" y="341"/>
      <point x="114" y="396"/>
      <point x="177" y="436"/>
      <point x="246" y="462"/>
      <point x="277" y="468" type="qcurve" smooth="no"/>
      <point x="259" y="342" type="line" smooth="no"/>
      <point x="254" y="338"/>
      <point x="246" y="328"/>
      <point x="242" y="320" type="qcurve" smooth="yes"/>
      <point x="234" y="305"/>
      <point x="222" y="263"/>
      <point x="213" y="221"/>
      <point x="207" y="185"/>
      <point x="206" y="175" type="qcurve" smooth="yes"/>
      <point x="205" y="171"/>
      <point x="206" y="161"/>
      <point x="214" y="152"/>
      <point x="232" y="145"/>
      <point x="249" y="145" type="qcurve" smooth="yes"/>
      <point x="290" y="145"/>
      <point x="338" y="173"/>
      <point x="343" y="186" type="qcurve" smooth="no"/>
      <point x="369" y="316" type="line" smooth="yes"/>
      <point x="372" y="332"/>
      <point x="355" y="363"/>
      <point x="328" y="363" type="qcurve" smooth="yes"/>
      <point x="315" y="363"/>
      <point x="294" y="357"/>
      <point x="286" y="354" type="qcurve" smooth="yes"/>
      <point x="276" y="350"/>
      <point x="269" y="346" type="qcurve" smooth="no"/>
      <point x="288" y="469" type="line" smooth="no"/>
      <point x="317" y="472" type="line" smooth="yes"/>
      <point x="325" y="473"/>
      <point x="356" y="468"/>
      <point x="392" y="457"/>
      <point x="429" y="438"/>
      <point x="444" y="425" type="qcurve" smooth="no"/>
      <point x="470" y="445"/>
      <point x="537" y="470"/>
    </contour>
  </outline>
</glyph>
<glyph name="scaron" format="1">
  <advance width="489"/>
  <unicode hex="0161"/>
  <outline>
    <contour>
      <point x="348" y="529" type="line" smooth="no"/>
      <point x="443" y="601" type="line" smooth="no"/>
      <point x="430" y="506" type="line" smooth="no"/>
      <point x="376" y="466" type="line" smooth="no"/>
      <point x="406" y="461"/>
      <point x="457" y="432"/>
      <point x="468" y="404" type="qcurve" smooth="yes"/>
      <point x="474" y="390"/>
      <point x="478" y="359"/>
      <point x="470" y="334"/>
      <point x="448" y="316"/>
      <point x="429" y="315" type="qcurve" smooth="yes"/>
      <point x="413" y="314"/>
      <point x="394" y="334"/>
      <point x="378" y="358"/>
      <point x="360" y="378"/>
      <point x="344" y="377" type="qcurve" smooth="yes"/>
      <point x="327" y="376"/>
      <point x="292" y="354"/>
      <point x="287" y="337" type="qcurve" smooth="no"/>
      <point x="286" y="327"/>
      <point x="298" y="312"/>
      <point x="305" y="307" type="qcurve" smooth="no"/>
      <point x="380" y="281"/>
      <point x="426" y="250"/>
      <point x="455" y="204"/>
      <point x="449" y="170" type="qcurve" smooth="yes"/>
      <point x="442" y="125"/>
      <point x="398" y="60"/>
      <point x="331" y="19"/>
      <point x="243" y="0"/>
      <point x="192" y="0" type="qcurve" smooth="yes"/>
      <point x="165" y="0"/>
      <point x="112" y="11"/>
      <point x="69" y="38"/>
      <point x="41" y="81"/>
      <point x="39" y="113" type="qcurve" smooth="yes"/>
      <point x="37" y="155"/>
      <point x="79" y="210"/>
      <point x="121" y="215" type="qcurve" smooth="yes"/>
      <point x="152" y="219"/>
      <point x="195" y="197"/>
      <point x="232" y="168"/>
      <point x="270" y="145"/>
      <point x="297" y="147" type="qcurve" smooth="yes"/>
      <point x="312" y="149"/>
      <point x="331" y="174"/>
      <point x="334" y="187" type="qcurve" smooth="yes"/>
      <point x="339" y="208"/>
      <point x="323" y="222" type="qcurve" smooth="no"/>
      <point x="313" y="229"/>
      <point x="265" y="236"/>
      <point x="209" y="241"/>
      <point x="157" y="248"/>
      <point x="143" y="254" type="qcurve" smooth="yes"/>
      <point x="132" y="259"/>
      <point x="110" y="274"/>
      <point x="92" y="293"/>
      <point x="82" y="316"/>
      <point x="84" y="329" type="qcurve" smooth="yes"/>
      <point x="88" y="355"/>
      <point x="125" y="400"/>
      <point x="181" y="435"/>
      <point x="250" y="460"/>
      <point x="287" y="465" type="qcurve" smooth="no"/>
      <point x="238" y="498" type="line" smooth="no"/>
      <point x="249" y="583" type="line" smooth="no"/>
    </contour>
  </outline>
</glyph>
<glyph name="Zcaron" format="1">
  <advance width="538"/>
  <unicode hex="017d"/>
  <outline>
    <contour>
      <point x="389" y="741" type="line" smooth="no"/>
      <point x="500" y="791" type="line" smooth="no"/>
      <point x="482" y="693" type="line" smooth="no"/>
      <point x="429" y="665" type="line" smooth="no"/>
      <point x="509" y="665" type="line" smooth="no"/>
      <point x="473" y="481" type="line" smooth="no"/>
      <point x="246" y="163" type="line" smooth="no"/>
      <point x="409" y="163" type="line" smooth="no"/>
      <point x="382" y="0" type="line" smooth="no"/>
      <point x="31" y="0" type="line" smooth="no"/>
      <point x="65" y="205" type="line" smooth="no"/>
      <point x="280" y="507" type="line" smooth="no"/>
      <point x="119" y="506" type="line" smooth="no"/>
      <point x="142" y="666" type="line" smooth="no"/>
      <point x="307" y="665" type="line" smooth="no"/>
      <point x="237" y="696" type="line" smooth="no"/>
      <point x="251" y="791" type="line" smooth="no"/>
    </contour>
  </outline>
</glyph>
<glyph name="zcaron" format="1">
  <advance width="601"/>
  <unicode hex="017e"/>
  <outline>
    <contour>
      <point x="379" y="531" type="line" smooth="no"/>
      <point x="490" y="603" type="line" smooth="no"/>
      <point x="480" y="508" type="line" smooth="no"/>
      <point x="427" y="469" type="line" smooth="no"/>
      <point x="553" y="469" type="line" smooth="no"/>
      <point x="538" y="366" type="line" smooth="no"/>
      <point x="318" y="108" type="line" smooth="no"/>
      <point x="484" y="108" type="line" smooth="no"/>
      <point x="464" y="0" type="line" smooth="no"/>
      <point x="31" y="0" type="line" smooth="no"/>
      <point x="45" y="78" type="line" smooth="no"/>
      <point x="284" y="353" type="line" smooth="no"/>
      <point x="91" y="353" type="line" smooth="no"/>
      <point x="108" y="469" type="line" smooth="no"/>
      <point x="311" y="469" type="line" smooth="no"/>
      <point x="245" y="514" type="line" smooth="no"/>
      <point x="258" y="610" type="line" smooth="no"/>
    </contour>
  </outline>
</glyph>
<glyph name="florin" format="1">
  <advance width="568"/>
  <unicode hex="0192"/>
  <outline>
    <contour>
      <point x="-22" y="-102" type="line" smooth="no"/>
      <point x="-20" y="-103"/>
      <point x="-3" y="-104"/>
      <point x="18" y="-105"/>
      <point x="37" y="-106"/>
      <point x="41" y="-106" type="qcurve" smooth="yes"/>
      <point x="75" y="-106"/>
      <point x="119" y="-72"/>
      <point x="146" y="-24"/>
      <point x="159" y="28"/>
      <point x="162" y="46" type="qcurve" smooth="yes"/>
      <point x="176" y="119"/>
      <point x="214" y="336" type="line" smooth="no"/>
      <point x="115" y="337" type="line" smooth="no"/>
      <point x="119" y="363"/>
      <point x="123" y="384" type="qcurve" smooth="yes"/>
      <point x="132" y="435"/>
      <point x="133" y="438" type="qcurve" smooth="no"/>
      <point x="235" y="438" type="line" smooth="no"/>
      <point x="246" y="499"/>
      <point x="265" y="583"/>
      <point x="304" y="634"/>
      <point x="376" y="656"/>
      <point x="439" y="656" type="qcurve" smooth="yes"/>
      <point x="478" y="656"/>
      <point x="561" y="648"/>
      <point x="593" y="641" type="qcurve" smooth="no"/>
      <point x="583" y="583" type="line" smooth="no"/>
      <point x="581" y="584"/>
      <point x="564" y="585"/>
      <point x="543" y="587"/>
      <point x="524" y="588"/>
      <point x="520" y="588" type="qcurve" smooth="yes"/>
      <point x="481" y="588"/>
      <point x="435" y="553"/>
      <point x="410" y="504"/>
      <point x="398" y="436" type="line" smooth="no"/>
      <point x="502" y="436" type="line" smooth="no"/>
      <point x="485" y="335" type="line" smooth="no"/>
      <point x="379" y="334" type="line" smooth="no"/>
      <point x="331" y="81"/>
      <point x="325" y="44" type="qcurve" smooth="yes"/>
      <point x="314" y="-18"/>
      <point x="296" y="-102"/>
      <point x="256" y="-153"/>
      <point x="184" y="-175"/>
      <point x="121" y="-175" type="qcurve" smooth="yes"/>
      <point x="83" y="-175"/>
      <point x="0" y="-166"/>
      <point x="-33" y="-159" type="qcurve" smooth="no"/>
    </contour>
  </outline>
</glyph>
<glyph name="caron" format="1">
  <advance width="383"/>
  <unicode hex="02c7"/>
  <outline>
    <contour>
      <point x="275" y="659" type="line" smooth="no"/>
      <point x="147" y="588" type="line" smooth="no"/>
      <point x="65" y="654" type="line" smooth="no"/>
      <point x="84" y="744" type="line" smooth="no"/>
      <point x="167" y="682" type="line" smooth="no"/>
      <point x="299" y="744" type="line" smooth="no"/>
    </contour>
  </outline>
</glyph>
<glyph name="breve" format="1">
  <advance width="508"/>
  <unicode hex="02d8"/>
  <outline>
    <contour>
      <point x="118" y="786" type="line" smooth="no"/>
      <point x="141" y="770"/>
      <point x="164" y="758" type="qcurve" smooth="yes"/>
      <point x="184" y="747"/>
      <point x="225" y="730"/>
      <point x="240" y="730" type="qcurve" smooth="yes"/>
      <point x="257" y="730"/>
      <point x="290" y="747"/>
      <point x="304" y="758" type="qcurve" smooth="yes"/>
      <point x="320" y="770"/>
      <point x="335" y="786" type="qcurve" smooth="no"/>
      <point x="317" y="684" type="line" smooth="no"/>
      <point x="309" y="673"/>
      <point x="296" y="664" type="qcurve" smooth="yes"/>
      <point x="285" y="656"/>
      <point x="249" y="644"/>
      <point x="222" y="644" type="qcurve" smooth="yes"/>
      <point x="203" y="644"/>
      <point x="162" y="663"/>
      <point x="144" y="674" type="qcurve" smooth="yes"/>
      <point x="123" y="687"/>
      <point x="102" y="704" type="qcurve" smooth="no"/>
    </contour>
  </outline>
</glyph>
<glyph name="hungarumlaut" format="1">
  <advance width="475"/>
  <unicode hex="02dd"/>
  <outline>
    <contour>
      <point x="178" y="374" type="qcurve" smooth="no"/>
      <point x="164" y="372"/>
      <point x="117" y="370"/>
      <point x="92" y="372" type="qcurve" smooth="no"/>
      <point x="116" y="495" type="line" smooth="no"/>
      <point x="89" y="495"/>
      <point x="80" y="496"/>
      <point x="70" y="497"/>
      <point x="59" y="497" type="qcurve" smooth="no"/>
      <point x="61" y="531"/>
      <point x="70" y="613"/>
      <point x="75" y="647" type="qcurve" smooth="no"/>
      <point x="116" y="650"/>
      <point x="185" y="652"/>
      <point x="229" y="656" type="qcurve" smooth="no"/>
      <point x="226" y="616"/>
      <point x="214" y="547"/>
      <point x="185" y="413"/>
    </contour>
    <contour>
      <point x="388" y="374" type="qcurve" smooth="no"/>
      <point x="374" y="372"/>
      <point x="327" y="370"/>
      <point x="302" y="372" type="qcurve" smooth="no"/>
      <point x="326" y="495" type="line" smooth="no"/>
      <point x="299" y="495"/>
      <point x="290" y="496"/>
      <point x="280" y="497"/>
      <point x="269" y="497" type="qcurve" smooth="no"/>
      <point x="271" y="531"/>
      <point x="280" y="613"/>
      <point x="285" y="647" type="qcurve" smooth="no"/>
      <point x="326" y="650"/>
      <point x="395" y="652"/>
      <point x="439" y="656" type="qcurve" smooth="no"/>
      <point x="436" y="616"/>
      <point x="424" y="547"/>
      <point x="395" y="413"/>
    </contour>
  </outline>
</glyph>
<glyph name="quoteleft" format="1">
  <advance width="283"/>
  <unicode hex="2018"/>
  <outline>
    <contour>
      <point x="42" y="384" type="line" smooth="no"/>
      <point x="86" y="666" type="line" smooth="no"/>
      <point x="240" y="666" type="line" smooth="no"/>
      <point x="191" y="507" type="line" smooth="no"/>
      <point x="137" y="507" type="line" smooth="no"/>
      <point x="118" y="384" type="line" smooth="no"/>
    </contour>
  </outline>
</glyph>
<glyph name="quotedblright" format="1">
  <advance width="488"/>
  <unicode hex="201d"/>
  <outline>
    <contour>
      <point x="101" y="384" type="line" smooth="no"/>
      <point x="120" y="507" type="line" smooth="no"/>
      <point x="66" y="507" type="line" smooth="no"/>
      <point x="77" y="666" type="line" smooth="no"/>
      <point x="231" y="666" type="line" smooth="no"/>
      <point x="185" y="384" type="line" smooth="no"/>
    </contour>
    <contour>
      <point x="301" y="384" type="line" smooth="no"/>
      <point x="320" y="507" type="line" smooth="no"/>
      <point x="266" y="507" type="line" smooth="no"/>
      <point x="277" y="666" type="line" smooth="no"/>
      <point x="431" y="666" type="line" smooth="no"/>
      <point x="385" y="384" type="line" smooth="no"/>
    </contour>
  </outline>
</glyph>
<glyph name="dagger" format="1">
  <advance width="413"/>
  <unicode hex="2020"/>
  <outline>
    <contour>
      <point x="143" y="526" type="line" smooth="no"/>
      <point x="166" y="665" type="line" smooth="no"/>
      <point x="316" y="666" type="line" smooth="no"/>
      <point x="292" y="526" type="line" smooth="no"/>
      <point x="391" y="526" type="line" smooth="no"/>
      <point x="370" y="393" type="line" smooth="no"/>
      <point x="270" y="393" type="line" smooth="no"/>
      <point x="204" y="-1" type="line" smooth="no"/>
      <point x="56" y="-1" type="line" smooth="no"/>
      <point x="121" y="393" type="line" smooth="no"/>
      <point x="30" y="393" type="line" smooth="no"/>
      <point x="51" y="526" type="line" smooth="no"/>
    </contour>
  </outline>
</glyph>
<glyph name="daggerdbl" format="1">
  <advance width="440"/>
  <unicode hex="2021"/>
  <outline>
    <contour>
      <point x="47" y="294" type="line" smooth="no"/>
      <point x="135" y="294" type="line" smooth="no"/>
      <point x="151" y="393" type="line" smooth="no"/>
      <point x="60" y="393" type="line" smooth="no"/>
      <point x="81" y="526" type="line" smooth="no"/>
      <point x="173" y="526" type="line" smooth="no"/>
      <point x="196" y="665" type="line" smooth="no"/>
      <point x="346" y="666" type="line" smooth="no"/>
      <point x="322" y="526" type="line" smooth="no"/>
      <point x="421" y="526" type="line" smooth="no"/>
      <point x="400" y="393" type="line" smooth="no"/>
      <point x="300" y="393" type="line" smooth="no"/>
      <point x="283" y="293" type="line" smooth="no"/>
      <point x="386" y="293" type="line" smooth="no"/>
      <point x="365" y="161" type="line" smooth="no"/>
      <point x="261" y="161" type="line" smooth="no"/>
      <point x="234" y="-1" type="line" smooth="no"/>
      <point x="86" y="-1" type="line" smooth="no"/>
      <point x="113" y="161" type="line" smooth="no"/>
      <point x="25" y="161" type="line" smooth="no"/>
    </contour>
  </outline>
</glyph>
<glyph name="bullet" format="1">
  <advance width="332"/>
  <unicode hex="2022"/>
  <outline>
    <contour>
      <point x="266" y="261" type="qcurve" smooth="yes"/>
      <point x="266" y="240"/>
      <point x="250" y="203"/>
      <point x="222" y="175"/>
      <point x="185" y="159"/>
      <point x="164" y="159" type="qcurve" smooth="yes"/>
      <point x="143" y="159"/>
      <point x="106" y="175"/>
      <point x="78" y="203"/>
      <point x="62" y="240"/>
      <point x="62" y="261" type="qcurve" smooth="yes"/>
      <point x="62" y="282"/>
      <point x="78" y="319"/>
      <point x="106" y="347"/>
      <point x="143" y="363"/>
      <point x="164" y="363" type="qcurve" smooth="yes"/>
      <point x="185" y="363"/>
      <point x="222" y="347"/>
      <point x="250" y="319"/>
      <point x="266" y="282"/>
    </contour>
  </outline>
</glyph>
<glyph name="guilsinglleft" format="1">
  <advance width="340"/>
  <unicode hex="2039"/>
  <outline>
    <contour>
      <point x="314" y="408" type="line" smooth="no"/>
      <point x="200" y="203" type="line" smooth="no"/>
      <point x="273" y="0" type="line" smooth="no"/>
      <point x="132" y="0" type="line" smooth="no"/>
      <point x="49" y="203" type="line" smooth="no"/>
      <point x="182" y="408" type="line" smooth="no"/>
    </contour>
  </outline>
</glyph>
<glyph name="arrowleftright" format="1">
  <advance width="845"/>
  <unicode hex="2194"/>
  <outline>
    <contour>
      <point x="608" y="312" type="line" smooth="no"/>
      <point x="629" y="439" type="line" smooth="no"/>
      <point x="801" y="245" type="line" smooth="no"/>
      <point x="565" y="48" type="line" smooth="no"/>
      <point x="585" y="172" type="line" smooth="no"/>
      <point x="220" y="172" type="line" smooth="no"/>
      <point x="200" y="46" type="line" smooth="no"/>
      <point x="48" y="244" type="line" smooth="no"/>
      <point x="264" y="441" type="line" smooth="no"/>
      <point x="243" y="313" type="line" smooth="no"/>
    </contour>
  </outline>
</glyph>
<glyph name="fi" format="1">
  <advance width="700"/>
  <unicode hex="2211"/>
  <outline>
    <contour>
      <point x="666" y="550" type="qcurve" smooth="yes"/>
      <point x="660" y="506"/>
      <point x="658" y="495" type="qcurve" smooth="yes"/>
      <point x="654" y="469" type="line" smooth="no"/>
      <point x="593" y="469" type="line" smooth="no"/>
      <point x="591" y="446" type="line" smooth="no"/>
      <point x="650" y="446" type="line" smooth="no"/>
      <point x="571" y="0" type="line" smooth="no"/>
      <point x="411" y="0" type="line" smooth="no"/>
      <point x="484" y="445" type="line" smooth="no"/>
      <point x="547" y="445" type="line" smooth="no"/>
      <point x="551" y="469" type="line" smooth="no"/>
      <point x="489" y="469" type="line" smooth="no"/>
      <point x="491" y="477"/>
      <point x="493" y="488" type="qcurve" smooth="yes"/>
      <point x="495" y="497"/>
      <point x="499" y="522"/>
      <point x="501" y="538" type="qcurve" smooth="yes"/>
      <point x="502" y="541"/>
      <point x="501" y="558"/>
      <point x="491" y="574"/>
      <point x="469" y="587"/>
      <point x="448" y="587" type="qcurve" smooth="yes"/>
      <point x="408" y="587"/>
      <point x="360" y="556"/>
      <point x="332" y="509"/>
      <point x="319" y="453"/>
      <point x="315" y="429" type="qcurve" smooth="no"/>
      <point x="415" y="429" type="line" smooth="no"/>
      <point x="400" y="333" type="line" smooth="no"/>
      <point x="298" y="333" type="line" smooth="no"/>
      <point x="240" y="0" type="line" smooth="no"/>
      <point x="77" y="0" type="line" smooth="no"/>
      <point x="134" y="332" type="line" smooth="no"/>
      <point x="31" y="331" type="line" smooth="no"/>
      <point x="46" y="429" type="line" smooth="no"/>
      <point x="148" y="429" type="line" smooth="no"/>
      <point x="161" y="491"/>
      <point x="202" y="579"/>
      <point x="274" y="634"/>
      <point x="383" y="660"/>
      <point x="465" y="660" type="qcurve" smooth="yes"/>
      <point x="548" y="660"/>
      <point x="632" y="629"/>
      <point x="666" y="590"/>
      <point x="667" y="555"/>
    </contour>
  </outline>
</glyph>
<glyph name="infinity" format="1">
  <advance width="613"/>
  <unicode hex="221e"/>
  <outline>
    <contour>
      <point x="204" y="349" type="line" smooth="no"/>
      <point x="214" y="349"/>
      <point x="248" y="343"/>
      <point x="284" y="333"/>
      <point x="317" y="319"/>
      <point x="327" y="312" type="qcurve" smooth="no"/>
      <point x="362" y="156" type="line" smooth="no"/>
      <point x="371" y="151"/>
      <point x="391" y="145"/>
      <point x="401" y="145" type="qcurve" smooth="yes"/>
      <point x="421" y="145"/>
      <point x="445" y="171"/>
      <point x="448" y="184" type="qcurve" smooth="yes"/>
      <point x="453" y="206"/>
      <point x="428" y="230"/>
      <point x="414" y="230" type="qcurve" smooth="yes"/>
      <point x="394" y="230"/>
      <point x="367" y="217"/>
      <point x="359" y="209" type="qcurve" smooth="no"/>
      <point x="336" y="312" type="line" smooth="no"/>
      <point x="354" y="328"/>
      <point x="395" y="345"/>
      <point x="432" y="352"/>
      <point x="470" y="352" type="line" smooth="yes"/>
      <point x="489" y="352"/>
      <point x="536" y="334"/>
      <point x="575" y="292"/>
      <point x="596" y="224"/>
      <point x="588" y="175" type="qcurve" smooth="yes"/>
      <point x="588" y="174"/>
      <point x="576" y="127"/>
      <point x="540" y="72"/>
      <point x="475" y="26"/>
      <point x="421" y="26" type="qcurve" smooth="yes"/>
      <point x="409" y="26" type="line" smooth="yes"/>
      <point x="400" y="26"/>
      <point x="361" y="33"/>
      <point x="319" y="45"/>
      <point x="284" y="59"/>
      <point x="279" y="65" type="qcurve" smooth="no"/>
      <point x="235" y="218" type="line" smooth="no"/>
      <point x="230" y="220"/>
      <point x="204" y="229"/>
      <point x="198" y="229" type="qcurve" smooth="yes"/>
      <point x="180" y="229"/>
      <point x="145" y="208"/>
      <point x="140" y="188" type="qcurve" smooth="no"/>
      <point x="137" y="168"/>
      <point x="164" y="147"/>
      <point x="184" y="147" type="qcurve" smooth="yes"/>
      <point x="190" y="147"/>
      <point x="207" y="152"/>
      <point x="225" y="158"/>
      <point x="239" y="165"/>
      <point x="242" y="168" type="qcurve" smooth="no"/>
      <point x="271" y="61" type="line" smooth="no"/>
      <point x="257" y="49"/>
      <point x="221" y="33"/>
      <point x="183" y="24"/>
      <point x="146" y="21"/>
      <point x="133" y="21" type="qcurve" smooth="yes"/>
      <point x="108" y="21"/>
      <point x="62" y="45"/>
      <point x="29" y="90"/>
      <point x="14" y="154"/>
      <point x="19" y="193" type="qcurve" smooth="yes"/>
      <point x="23" y="227"/>
      <point x="52" y="285"/>
      <point x="97" y="326"/>
      <point x="156" y="349"/>
      <point x="191" y="349" type="qcurve" smooth="yes"/>
      <point x="204" y="349" type="line" smooth="no"/>
    </contour>
  </outline>
</glyph>
<glyph name="lessequal" format="1">
  <advance width="454"/>
  <unicode hex="2264"/>
  <outline>
    <contour>
      <point x="397" y="425" type="line" smooth="no"/>
      <point x="318" y="374" type="line" smooth="no"/>
      <point x="379" y="307" type="line" smooth="no"/>
      <point x="353" y="149" type="line" smooth="no"/>
      <point x="94" y="400" type="line" smooth="no"/>
      <point x="426" y="592" type="line" smooth="no"/>
    </contour>
    <contour>
      <point x="51" y="132" type="line" smooth="no"/>
      <point x="350" y="132" type="line" smooth="no"/>
      <point x="329" y="-1" type="line" smooth="no"/>
      <point x="30" y="-1" type="line" smooth="no"/>
    </contour>
  </outline>
</glyph>
<glyph name="greaterequal" format="1">
  <advance width="454"/>
  <unicode hex="2265"/>
  <outline>
    <contour>
      <point x="149" y="592" type="line" smooth="no"/>
      <point x="406" y="369" type="line" smooth="no"/>
      <point x="68" y="149" type="line" smooth="no"/>
      <point x="99" y="315" type="line" smooth="no"/>
      <point x="180" y="369" type="line" smooth="no"/>
      <point x="120" y="425" type="line" smooth="no"/>
    </contour>
    <contour>
      <point x="339" y="-1" type="line" smooth="no"/>
      <point x="40" y="-1" type="line" smooth="no"/>
      <point x="65" y="132" type="line" smooth="no"/>
      <point x="364" y="132" type="line" smooth="no"/>
    </contour>
  </outline>
</glyph>
<glyph name="square" format="1">
  <advance width="504"/>
  <unicode hex="25a1"/>
  <outline>
    <contour>
      <point x="334" y="94" type="line" smooth="no"/>
      <point x="342" y="145"/>
      <point x="357" y="249"/>
      <point x="370" y="325"/>
      <point x="374" y="351" type="qcurve" smooth="no"/>
      <point x="469" y="351" type="line" smooth="no"/>
      <point x="413" y="9" type="line" smooth="no"/>
      <point x="49" y="11" type="line" smooth="no"/>
      <point x="110" y="351" type="line" smooth="no"/>
      <point x="365" y="351" type="line" smooth="no"/>
      <point x="349" y="261" type="line" smooth="no"/>
      <point x="201" y="262" type="line" smooth="no"/>
      <point x="174" y="96" type="line" smooth="no"/>
    </contour>
  </outline>
</glyph>
<glyph name="ff" format="1">
  <advance width="785"/>
  <unicode hex="fb00"/>
  <outline>
    <contour>
      <point x="753" y="585" type="line" smooth="no"/>
      <point x="749" y="587"/>
      <point x="742" y="588"/>
      <point x="734" y="588" type="qcurve" smooth="yes"/>
      <point x="698" y="588"/>
      <point x="656" y="554"/>
      <point x="632" y="506"/>
      <point x="621" y="454"/>
      <point x="618" y="436" type="qcurve" smooth="no"/>
      <point x="722" y="436" type="line" smooth="no"/>
      <point x="705" y="334" type="line" smooth="no"/>
      <point x="596" y="334" type="line" smooth="no"/>
      <point x="537" y="0" type="line" smooth="no"/>
      <point x="375" y="-1" type="line" smooth="no"/>
      <point x="434" y="334" type="line" smooth="no"/>
      <point x="296" y="334" type="line" smooth="no"/>
      <point x="237" y="0" type="line" smooth="no"/>
      <point x="75" y="-1" type="line" smooth="no"/>
      <point x="134" y="336" type="line" smooth="no"/>
      <point x="35" y="337" type="line" smooth="no"/>
      <point x="39" y="363"/>
      <point x="43" y="384" type="qcurve" smooth="yes"/>
      <point x="46" y="402"/>
      <point x="52" y="434"/>
      <point x="53" y="437" type="qcurve" smooth="no"/>
      <point x="155" y="438" type="line" smooth="no"/>
      <point x="166" y="499"/>
      <point x="192" y="583"/>
      <point x="234" y="634"/>
      <point x="297" y="656"/>
      <point x="344" y="656" type="qcurve" smooth="yes"/>
      <point x="382" y="656"/>
      <point x="436" y="649"/>
      <point x="469" y="642" type="qcurve" smooth="no"/>
      <point x="458" y="585" type="line" smooth="no"/>
      <point x="450" y="588"/>
      <point x="434" y="588" type="qcurve" smooth="yes"/>
      <point x="398" y="588"/>
      <point x="356" y="554"/>
      <point x="332" y="506"/>
      <point x="321" y="454"/>
      <point x="318" y="436" type="qcurve" smooth="no"/>
      <point x="353" y="435"/>
      <point x="417" y="436"/>
      <point x="455" y="436" type="qcurve" smooth="no"/>
      <point x="466" y="497"/>
      <point x="496" y="582"/>
      <point x="541" y="633"/>
      <point x="602" y="656"/>
      <point x="644" y="656" type="qcurve" smooth="yes"/>
      <point x="663" y="656"/>
      <point x="693" y="654"/>
      <point x="720" y="651"/>
      <point x="747" y="645"/>
      <point x="764" y="642" type="qcurve" smooth="no"/>
    </contour>
  </outline>
</glyph>
